{
  "asset" : {
    "generator" : "UE Viewer (umodel) build 1590",
    "version" : "2.0"
  },
  "scene" : 0,
  "scenes" : [
    {
      "nodes" : [ 0 ]
    }
  ],
  "nodes" : [
    {
      "name" : "acc2",
      "mesh" : 0,
      "skin" : 0,
      "children" : [ 1 ]
    },
    {
      "name" : "b_body",
      "translation" : [ 0, 0, -0 ],
      "rotation" : [ -0, -0, 0, -1 ]
    }
  ],
  "skins" : [
    {
      "inverseBindMatrices" : 0,
      "skeleton" : 1,
      "joints" : [
        1
      ]
    }
  ],
  "materials" : [
    {
      "name" : "mat_alien_rifle_INST",
      "pbrMetallicRoughness" : {
        "baseColorFactor" : [ 0.3, 0.3, 0.3, 1.0 ],
        "metallicFactor" : 0.1,
        "roughnessFactor" : 0.5
      }
    }
  ],
  "meshes" : [
    {
      "primitives" : [
        {
          "attributes" : {
            "POSITION" : 2,
            "NORMAL" : 3,
            "TANGENT" : 4,
            "JOINTS_0" : 5,
            "WEIGHTS_0" : 6,
            "TEXCOORD_0" : 7
          },
          "indices" : 1,
          "material" : 0
        }
      ],
      "name" : "acc2"
    }
  ],
  "buffers" : [
    {
      "uri" : "acc2.bin",
      "byteLength" : 17728
    }
  ],
  "bufferViews" : [
    {
      "buffer" : 0,
      "byteOffset" : 0,
      "byteLength" : 64
    },
    {
      "buffer" : 0,
      "byteOffset" : 64,
      "byteLength" : 2124
    },
    {
      "buffer" : 0,
      "byteOffset" : 2188,
      "byteLength" : 3108
    },
    {
      "buffer" : 0,
      "byteOffset" : 5296,
      "byteLength" : 3108
    },
    {
      "buffer" : 0,
      "byteOffset" : 8404,
      "byteLength" : 4144
    },
    {
      "buffer" : 0,
      "byteOffset" : 12548,
      "byteLength" : 2072
    },
    {
      "buffer" : 0,
      "byteOffset" : 14620,
      "byteLength" : 1036
    },
    {
      "buffer" : 0,
      "byteOffset" : 15656,
      "byteLength" : 2072
    }
  ],
  "accessors" : [
    {
      "bufferView" : 0,
      "componentType" : 5126,
      "count" : 1,
      "type" : "MAT4"
    },
    {
      "bufferView" : 1,
      "componentType" : 5123,
      "count" : 1062,
      "type" : "SCALAR"
    },
    {
      "bufferView" : 2,
      "min" : [ -0.0638507, -0.0567464, -0.197852 ],
      "max" : [ 0.0638507, 0.0308575, -0.0182379 ],
      "componentType" : 5126,
      "count" : 259,
      "type" : "VEC3"
    },
    {
      "bufferView" : 3,
      "componentType" : 5126,
      "count" : 259,
      "type" : "VEC3"
    },
    {
      "bufferView" : 4,
      "componentType" : 5126,
      "count" : 259,
      "type" : "VEC4"
    },
    {
      "bufferView" : 5,
      "componentType" : 5123,
      "count" : 259,
      "type" : "VEC4"
    },
    {
      "bufferView" : 6,
      "normalized" : true,
      "componentType" : 5121,
      "count" : 259,
      "type" : "VEC4"
    },
    {
      "bufferView" : 7,
      "componentType" : 5126,
      "count" : 259,
      "type" : "VEC2"
    }
  ]
}
