{
  "asset" : {
    "generator" : "UE Viewer (umodel) build 1590",
    "version" : "2.0"
  },
  "scene" : 0,
  "scenes" : [
    {
      "nodes" : [ 0 ]
    }
  ],
  "nodes" : [
    {
      "name" : "barrel2",
      "mesh" : 0,
      "skin" : 0,
      "children" : [ 1 ]
    },
    {
      "name" : "b_body",
      "translation" : [ 0, 0, -0 ],
      "rotation" : [ -0, -0, 0, -1 ]
    }
  ],
  "skins" : [
    {
      "inverseBindMatrices" : 0,
      "skeleton" : 1,
      "joints" : [
        1
      ]
    }
  ],
  "materials" : [
    {
      "name" : "mat_alien_rifle_INST",
      "pbrMetallicRoughness" : {
        "baseColorFactor" : [ 0.3, 0.3, 0.3, 1.0 ],
        "metallicFactor" : 0.1,
        "roughnessFactor" : 0.5
      }
    }
  ],
  "meshes" : [
    {
      "primitives" : [
        {
          "attributes" : {
            "POSITION" : 2,
            "NORMAL" : 3,
            "TANGENT" : 4,
            "JOINTS_0" : 5,
            "WEIGHTS_0" : 6,
            "TEXCOORD_0" : 7
          },
          "indices" : 1,
          "material" : 0
        }
      ],
      "name" : "barrel2"
    }
  ],
  "buffers" : [
    {
      "uri" : "barrel2.bin",
      "byteLength" : 64440
    }
  ],
  "bufferViews" : [
    {
      "buffer" : 0,
      "byteOffset" : 0,
      "byteLength" : 64
    },
    {
      "buffer" : 0,
      "byteOffset" : 64,
      "byteLength" : 7556
    },
    {
      "buffer" : 0,
      "byteOffset" : 7620,
      "byteLength" : 11364
    },
    {
      "buffer" : 0,
      "byteOffset" : 18984,
      "byteLength" : 11364
    },
    {
      "buffer" : 0,
      "byteOffset" : 30348,
      "byteLength" : 15152
    },
    {
      "buffer" : 0,
      "byteOffset" : 45500,
      "byteLength" : 7576
    },
    {
      "buffer" : 0,
      "byteOffset" : 53076,
      "byteLength" : 3788
    },
    {
      "buffer" : 0,
      "byteOffset" : 56864,
      "byteLength" : 7576
    }
  ],
  "accessors" : [
    {
      "bufferView" : 0,
      "componentType" : 5126,
      "count" : 1,
      "type" : "MAT4"
    },
    {
      "bufferView" : 1,
      "componentType" : 5123,
      "count" : 3777,
      "type" : "SCALAR"
    },
    {
      "bufferView" : 2,
      "min" : [ -0.0493946, -0.0479899, -0.786057 ],
      "max" : [ 0.0493946, 0.0657913, -0.197738 ],
      "componentType" : 5126,
      "count" : 947,
      "type" : "VEC3"
    },
    {
      "bufferView" : 3,
      "componentType" : 5126,
      "count" : 947,
      "type" : "VEC3"
    },
    {
      "bufferView" : 4,
      "componentType" : 5126,
      "count" : 947,
      "type" : "VEC4"
    },
    {
      "bufferView" : 5,
      "componentType" : 5123,
      "count" : 947,
      "type" : "VEC4"
    },
    {
      "bufferView" : 6,
      "normalized" : true,
      "componentType" : 5121,
      "count" : 947,
      "type" : "VEC4"
    },
    {
      "bufferView" : 7,
      "componentType" : 5126,
      "count" : 947,
      "type" : "VEC2"
    }
  ]
}
