{
  "asset" : {
    "generator" : "UE Viewer (umodel) build 1590",
    "version" : "2.0"
  },
  "scene" : 0,
  "scenes" : [
    {
      "nodes" : [ 0 ]
    }
  ],
  "nodes" : [
    {
      "name" : "barrel5",
      "mesh" : 0,
      "skin" : 0,
      "children" : [ 1 ]
    },
    {
      "name" : "b_body",
      "translation" : [ 0, 0, -0 ],
      "rotation" : [ -0, -0, 0, -1 ]
    }
  ],
  "skins" : [
    {
      "inverseBindMatrices" : 0,
      "skeleton" : 1,
      "joints" : [
        1
      ]
    }
  ],
  "materials" : [
    {
      "name" : "mat_alien_rifle_INST",
      "pbrMetallicRoughness" : {
        "baseColorFactor" : [ 0.3, 0.3, 0.3, 1.0 ],
        "metallicFactor" : 0.1,
        "roughnessFactor" : 0.5
      }
    }
  ],
  "meshes" : [
    {
      "primitives" : [
        {
          "attributes" : {
            "POSITION" : 2,
            "NORMAL" : 3,
            "TANGENT" : 4,
            "JOINTS_0" : 5,
            "WEIGHTS_0" : 6,
            "TEXCOORD_0" : 7
          },
          "indices" : 1,
          "material" : 0
        }
      ],
      "name" : "barrel5"
    }
  ],
  "buffers" : [
    {
      "uri" : "barrel5.bin",
      "byteLength" : 33736
    }
  ],
  "bufferViews" : [
    {
      "buffer" : 0,
      "byteOffset" : 0,
      "byteLength" : 64
    },
    {
      "buffer" : 0,
      "byteOffset" : 64,
      "byteLength" : 3492
    },
    {
      "buffer" : 0,
      "byteOffset" : 3556,
      "byteLength" : 6036
    },
    {
      "buffer" : 0,
      "byteOffset" : 9592,
      "byteLength" : 6036
    },
    {
      "buffer" : 0,
      "byteOffset" : 15628,
      "byteLength" : 8048
    },
    {
      "buffer" : 0,
      "byteOffset" : 23676,
      "byteLength" : 4024
    },
    {
      "buffer" : 0,
      "byteOffset" : 27700,
      "byteLength" : 2012
    },
    {
      "buffer" : 0,
      "byteOffset" : 29712,
      "byteLength" : 4024
    }
  ],
  "accessors" : [
    {
      "bufferView" : 0,
      "componentType" : 5126,
      "count" : 1,
      "type" : "MAT4"
    },
    {
      "bufferView" : 1,
      "componentType" : 5123,
      "count" : 1746,
      "type" : "SCALAR"
    },
    {
      "bufferView" : 2,
      "min" : [ -0.0279296, -0.0115898, -0.867402 ],
      "max" : [ 0.0278316, 0.10075, -0.197623 ],
      "componentType" : 5126,
      "count" : 503,
      "type" : "VEC3"
    },
    {
      "bufferView" : 3,
      "componentType" : 5126,
      "count" : 503,
      "type" : "VEC3"
    },
    {
      "bufferView" : 4,
      "componentType" : 5126,
      "count" : 503,
      "type" : "VEC4"
    },
    {
      "bufferView" : 5,
      "componentType" : 5123,
      "count" : 503,
      "type" : "VEC4"
    },
    {
      "bufferView" : 6,
      "normalized" : true,
      "componentType" : 5121,
      "count" : 503,
      "type" : "VEC4"
    },
    {
      "bufferView" : 7,
      "componentType" : 5126,
      "count" : 503,
      "type" : "VEC2"
    }
  ]
}
