{
  "asset" : {
    "generator" : "UE Viewer (umodel) build 1590",
    "version" : "2.0"
  },
  "scene" : 0,
  "scenes" : [
    {
      "nodes" : [ 0 ]
    }
  ],
  "nodes" : [
    {
      "name" : "barrel4",
      "mesh" : 0,
      "skin" : 0,
      "children" : [ 1 ]
    },
    {
      "name" : "b_body",
      "translation" : [ 0, 0, -0 ],
      "rotation" : [ -0, -0, 0, -1 ]
    }
  ],
  "skins" : [
    {
      "inverseBindMatrices" : 0,
      "skeleton" : 1,
      "joints" : [
        1
      ]
    }
  ],
  "materials" : [
    {
      "name" : "mat_alien_rifle_INST",
      "pbrMetallicRoughness" : {
        "baseColorFactor" : [ 0.3, 0.3, 0.3, 1.0 ],
        "metallicFactor" : 0.1,
        "roughnessFactor" : 0.5
      }
    }
  ],
  "meshes" : [
    {
      "primitives" : [
        {
          "attributes" : {
            "POSITION" : 2,
            "NORMAL" : 3,
            "TANGENT" : 4,
            "JOINTS_0" : 5,
            "WEIGHTS_0" : 6,
            "TEXCOORD_0" : 7
          },
          "indices" : 1,
          "material" : 0
        }
      ],
      "name" : "barrel4"
    }
  ],
  "buffers" : [
    {
      "uri" : "barrel4.bin",
      "byteLength" : 39484
    }
  ],
  "bufferViews" : [
    {
      "buffer" : 0,
      "byteOffset" : 0,
      "byteLength" : 64
    },
    {
      "buffer" : 0,
      "byteOffset" : 64,
      "byteLength" : 4800
    },
    {
      "buffer" : 0,
      "byteOffset" : 4864,
      "byteLength" : 6924
    },
    {
      "buffer" : 0,
      "byteOffset" : 11788,
      "byteLength" : 6924
    },
    {
      "buffer" : 0,
      "byteOffset" : 18712,
      "byteLength" : 9232
    },
    {
      "buffer" : 0,
      "byteOffset" : 27944,
      "byteLength" : 4616
    },
    {
      "buffer" : 0,
      "byteOffset" : 32560,
      "byteLength" : 2308
    },
    {
      "buffer" : 0,
      "byteOffset" : 34868,
      "byteLength" : 4616
    }
  ],
  "accessors" : [
    {
      "bufferView" : 0,
      "componentType" : 5126,
      "count" : 1,
      "type" : "MAT4"
    },
    {
      "bufferView" : 1,
      "componentType" : 5123,
      "count" : 2400,
      "type" : "SCALAR"
    },
    {
      "bufferView" : 2,
      "min" : [ -0.0214556, -0.0109812, -0.66211 ],
      "max" : [ 0.0214319, 0.0747809, -0.197798 ],
      "componentType" : 5126,
      "count" : 577,
      "type" : "VEC3"
    },
    {
      "bufferView" : 3,
      "componentType" : 5126,
      "count" : 577,
      "type" : "VEC3"
    },
    {
      "bufferView" : 4,
      "componentType" : 5126,
      "count" : 577,
      "type" : "VEC4"
    },
    {
      "bufferView" : 5,
      "componentType" : 5123,
      "count" : 577,
      "type" : "VEC4"
    },
    {
      "bufferView" : 6,
      "normalized" : true,
      "componentType" : 5121,
      "count" : 577,
      "type" : "VEC4"
    },
    {
      "bufferView" : 7,
      "componentType" : 5126,
      "count" : 577,
      "type" : "VEC2"
    }
  ]
}
