{
  "asset" : {
    "generator" : "UE Viewer (umodel) build 1590",
    "version" : "2.0"
  },
  "scene" : 0,
  "scenes" : [
    {
      "nodes" : [ 0 ]
    }
  ],
  "nodes" : [
    {
      "name" : "barrel1",
      "mesh" : 0,
      "skin" : 0,
      "children" : [ 1 ]
    },
    {
      "name" : "b_body",
      "translation" : [ 0, 0, -0 ],
      "rotation" : [ -0, -0, 0, -1 ]
    }
  ],
  "skins" : [
    {
      "inverseBindMatrices" : 0,
      "skeleton" : 1,
      "joints" : [
        1
      ]
    }
  ],
  "materials" : [
    {
      "name" : "mat_alien_rifle_INST",
      "pbrMetallicRoughness" : {
        "baseColorFactor" : [ 0.3, 0.3, 0.3, 1.0 ],
        "metallicFactor" : 0.1,
        "roughnessFactor" : 0.5
      }
    }
  ],
  "meshes" : [
    {
      "primitives" : [
        {
          "attributes" : {
            "POSITION" : 2,
            "NORMAL" : 3,
            "TANGENT" : 4,
            "JOINTS_0" : 5,
            "WEIGHTS_0" : 6,
            "TEXCOORD_0" : 7
          },
          "indices" : 1,
          "material" : 0
        }
      ],
      "name" : "barrel1"
    }
  ],
  "buffers" : [
    {
      "uri" : "barrel1.bin",
      "byteLength" : 41836
    }
  ],
  "bufferViews" : [
    {
      "buffer" : 0,
      "byteOffset" : 0,
      "byteLength" : 64
    },
    {
      "buffer" : 0,
      "byteOffset" : 64,
      "byteLength" : 4572
    },
    {
      "buffer" : 0,
      "byteOffset" : 4636,
      "byteLength" : 7440
    },
    {
      "buffer" : 0,
      "byteOffset" : 12076,
      "byteLength" : 7440
    },
    {
      "buffer" : 0,
      "byteOffset" : 19516,
      "byteLength" : 9920
    },
    {
      "buffer" : 0,
      "byteOffset" : 29436,
      "byteLength" : 4960
    },
    {
      "buffer" : 0,
      "byteOffset" : 34396,
      "byteLength" : 2480
    },
    {
      "buffer" : 0,
      "byteOffset" : 36876,
      "byteLength" : 4960
    }
  ],
  "accessors" : [
    {
      "bufferView" : 0,
      "componentType" : 5126,
      "count" : 1,
      "type" : "MAT4"
    },
    {
      "bufferView" : 1,
      "componentType" : 5123,
      "count" : 2286,
      "type" : "SCALAR"
    },
    {
      "bufferView" : 2,
      "min" : [ -0.0270238, -0.0219727, -0.923149 ],
      "max" : [ 0.0264588, 0.0516447, -0.197321 ],
      "componentType" : 5126,
      "count" : 620,
      "type" : "VEC3"
    },
    {
      "bufferView" : 3,
      "componentType" : 5126,
      "count" : 620,
      "type" : "VEC3"
    },
    {
      "bufferView" : 4,
      "componentType" : 5126,
      "count" : 620,
      "type" : "VEC4"
    },
    {
      "bufferView" : 5,
      "componentType" : 5123,
      "count" : 620,
      "type" : "VEC4"
    },
    {
      "bufferView" : 6,
      "normalized" : true,
      "componentType" : 5121,
      "count" : 620,
      "type" : "VEC4"
    },
    {
      "bufferView" : 7,
      "componentType" : 5126,
      "count" : 620,
      "type" : "VEC2"
    }
  ]
}
