{
  "asset" : {
    "generator" : "UE Viewer (umodel) build 1590",
    "version" : "2.0"
  },
  "scene" : 0,
  "scenes" : [
    {
      "nodes" : [ 0 ]
    }
  ],
  "nodes" : [
    {
      "name" : "body1",
      "mesh" : 0,
      "skin" : 0,
      "children" : [ 1 ]
    },
    {
      "name" : "b_body",
      "translation" : [ 0, 0, -0 ],
      "rotation" : [ -0, -0, 0, -1 ]
    }
  ],
  "skins" : [
    {
      "inverseBindMatrices" : 0,
      "skeleton" : 1,
      "joints" : [
        1
      ]
    }
  ],
  "materials" : [
    {
      "name" : "mat_alien_rifle_INST",
      "pbrMetallicRoughness" : {
        "baseColorFactor" : [ 0.3, 0.3, 0.3, 1.0 ],
        "metallicFactor" : 0.1,
        "roughnessFactor" : 0.5
      }
    }
  ],
  "meshes" : [
    {
      "primitives" : [
        {
          "attributes" : {
            "POSITION" : 2,
            "NORMAL" : 3,
            "TANGENT" : 4,
            "JOINTS_0" : 5,
            "WEIGHTS_0" : 6,
            "TEXCOORD_0" : 7
          },
          "indices" : 1,
          "material" : 0
        }
      ],
      "name" : "body1"
    }
  ],
  "buffers" : [
    {
      "uri" : "body1.bin",
      "byteLength" : 28480
    }
  ],
  "bufferViews" : [
    {
      "buffer" : 0,
      "byteOffset" : 0,
      "byteLength" : 64
    },
    {
      "buffer" : 0,
      "byteOffset" : 64,
      "byteLength" : 3696
    },
    {
      "buffer" : 0,
      "byteOffset" : 3760,
      "byteLength" : 4944
    },
    {
      "buffer" : 0,
      "byteOffset" : 8704,
      "byteLength" : 4944
    },
    {
      "buffer" : 0,
      "byteOffset" : 13648,
      "byteLength" : 6592
    },
    {
      "buffer" : 0,
      "byteOffset" : 20240,
      "byteLength" : 3296
    },
    {
      "buffer" : 0,
      "byteOffset" : 23536,
      "byteLength" : 1648
    },
    {
      "buffer" : 0,
      "byteOffset" : 25184,
      "byteLength" : 3296
    }
  ],
  "accessors" : [
    {
      "bufferView" : 0,
      "componentType" : 5126,
      "count" : 1,
      "type" : "MAT4"
    },
    {
      "bufferView" : 1,
      "componentType" : 5123,
      "count" : 1848,
      "type" : "SCALAR"
    },
    {
      "bufferView" : 2,
      "min" : [ -0.0384269, 0.0153009, -0.197373 ],
      "max" : [ 0.0369902, 0.093872, 0.0643157 ],
      "componentType" : 5126,
      "count" : 412,
      "type" : "VEC3"
    },
    {
      "bufferView" : 3,
      "componentType" : 5126,
      "count" : 412,
      "type" : "VEC3"
    },
    {
      "bufferView" : 4,
      "componentType" : 5126,
      "count" : 412,
      "type" : "VEC4"
    },
    {
      "bufferView" : 5,
      "componentType" : 5123,
      "count" : 412,
      "type" : "VEC4"
    },
    {
      "bufferView" : 6,
      "normalized" : true,
      "componentType" : 5121,
      "count" : 412,
      "type" : "VEC4"
    },
    {
      "bufferView" : 7,
      "componentType" : 5126,
      "count" : 412,
      "type" : "VEC2"
    }
  ]
}
