{
  "asset" : {
    "generator" : "UE Viewer (umodel) build 1590",
    "version" : "2.0"
  },
  "scene" : 0,
  "scenes" : [
    {
      "nodes" : [ 0 ]
    }
  ],
  "nodes" : [
    {
      "name" : "body2",
      "mesh" : 0,
      "skin" : 0,
      "children" : [ 1 ]
    },
    {
      "name" : "b_body",
      "translation" : [ 0, 0, -0 ],
      "rotation" : [ -0, -0, 0, -1 ]
    }
  ],
  "skins" : [
    {
      "inverseBindMatrices" : 0,
      "skeleton" : 1,
      "joints" : [
        1
      ]
    }
  ],
  "materials" : [
    {
      "name" : "mat_alien_rifle_INST",
      "pbrMetallicRoughness" : {
        "baseColorFactor" : [ 0.3, 0.3, 0.3, 1.0 ],
        "metallicFactor" : 0.1,
        "roughnessFactor" : 0.5
      }
    }
  ],
  "meshes" : [
    {
      "primitives" : [
        {
          "attributes" : {
            "POSITION" : 2,
            "NORMAL" : 3,
            "TANGENT" : 4,
            "JOINTS_0" : 5,
            "WEIGHTS_0" : 6,
            "TEXCOORD_0" : 7
          },
          "indices" : 1,
          "material" : 0
        }
      ],
      "name" : "body2"
    }
  ],
  "buffers" : [
    {
      "uri" : "body2.bin",
      "byteLength" : 28216
    }
  ],
  "bufferViews" : [
    {
      "buffer" : 0,
      "byteOffset" : 0,
      "byteLength" : 64
    },
    {
      "buffer" : 0,
      "byteOffset" : 64,
      "byteLength" : 3072
    },
    {
      "buffer" : 0,
      "byteOffset" : 3136,
      "byteLength" : 5016
    },
    {
      "buffer" : 0,
      "byteOffset" : 8152,
      "byteLength" : 5016
    },
    {
      "buffer" : 0,
      "byteOffset" : 13168,
      "byteLength" : 6688
    },
    {
      "buffer" : 0,
      "byteOffset" : 19856,
      "byteLength" : 3344
    },
    {
      "buffer" : 0,
      "byteOffset" : 23200,
      "byteLength" : 1672
    },
    {
      "buffer" : 0,
      "byteOffset" : 24872,
      "byteLength" : 3344
    }
  ],
  "accessors" : [
    {
      "bufferView" : 0,
      "componentType" : 5126,
      "count" : 1,
      "type" : "MAT4"
    },
    {
      "bufferView" : 1,
      "componentType" : 5123,
      "count" : 1536,
      "type" : "SCALAR"
    },
    {
      "bufferView" : 2,
      "min" : [ -0.0238976, 0.010697, -0.197869 ],
      "max" : [ 0.0239568, 0.082425, 0.0394656 ],
      "componentType" : 5126,
      "count" : 418,
      "type" : "VEC3"
    },
    {
      "bufferView" : 3,
      "componentType" : 5126,
      "count" : 418,
      "type" : "VEC3"
    },
    {
      "bufferView" : 4,
      "componentType" : 5126,
      "count" : 418,
      "type" : "VEC4"
    },
    {
      "bufferView" : 5,
      "componentType" : 5123,
      "count" : 418,
      "type" : "VEC4"
    },
    {
      "bufferView" : 6,
      "normalized" : true,
      "componentType" : 5121,
      "count" : 418,
      "type" : "VEC4"
    },
    {
      "bufferView" : 7,
      "componentType" : 5126,
      "count" : 418,
      "type" : "VEC2"
    }
  ]
}
