{
  "asset" : {
    "generator" : "UE Viewer (umodel) build 1590",
    "version" : "2.0"
  },
  "scene" : 0,
  "scenes" : [
    {
      "nodes" : [ 0 ]
    }
  ],
  "nodes" : [
    {
      "name" : "grip5",
      "mesh" : 0,
      "skin" : 0,
      "children" : [ 1 ]
    },
    {
      "name" : "b_body",
      "translation" : [ 0, 0, -0 ],
      "rotation" : [ -0, -0, 0, -1 ]
    }
  ],
  "skins" : [
    {
      "inverseBindMatrices" : 0,
      "skeleton" : 1,
      "joints" : [
        1
      ]
    }
  ],
  "materials" : [
    {
      "name" : "mat_alien_rifle_INST",
      "pbrMetallicRoughness" : {
        "baseColorFactor" : [ 0.3, 0.3, 0.3, 1.0 ],
        "metallicFactor" : 0.1,
        "roughnessFactor" : 0.5
      }
    }
  ],
  "meshes" : [
    {
      "primitives" : [
        {
          "attributes" : {
            "POSITION" : 2,
            "NORMAL" : 3,
            "TANGENT" : 4,
            "JOINTS_0" : 5,
            "WEIGHTS_0" : 6,
            "TEXCOORD_0" : 7
          },
          "indices" : 1,
          "material" : 0
        }
      ],
      "name" : "grip5"
    }
  ],
  "buffers" : [
    {
      "uri" : "grip5.bin",
      "byteLength" : 22396
    }
  ],
  "bufferViews" : [
    {
      "buffer" : 0,
      "byteOffset" : 0,
      "byteLength" : 64
    },
    {
      "buffer" : 0,
      "byteOffset" : 64,
      "byteLength" : 2472
    },
    {
      "buffer" : 0,
      "byteOffset" : 2536,
      "byteLength" : 3972
    },
    {
      "buffer" : 0,
      "byteOffset" : 6508,
      "byteLength" : 3972
    },
    {
      "buffer" : 0,
      "byteOffset" : 10480,
      "byteLength" : 5296
    },
    {
      "buffer" : 0,
      "byteOffset" : 15776,
      "byteLength" : 2648
    },
    {
      "buffer" : 0,
      "byteOffset" : 18424,
      "byteLength" : 1324
    },
    {
      "buffer" : 0,
      "byteOffset" : 19748,
      "byteLength" : 2648
    }
  ],
  "accessors" : [
    {
      "bufferView" : 0,
      "componentType" : 5126,
      "count" : 1,
      "type" : "MAT4"
    },
    {
      "bufferView" : 1,
      "componentType" : 5123,
      "count" : 1236,
      "type" : "SCALAR"
    },
    {
      "bufferView" : 2,
      "min" : [ -0.0133052, -0.076652, 0.013322 ],
      "max" : [ 0.0133053, 0.0587259, 0.175047 ],
      "componentType" : 5126,
      "count" : 331,
      "type" : "VEC3"
    },
    {
      "bufferView" : 3,
      "componentType" : 5126,
      "count" : 331,
      "type" : "VEC3"
    },
    {
      "bufferView" : 4,
      "componentType" : 5126,
      "count" : 331,
      "type" : "VEC4"
    },
    {
      "bufferView" : 5,
      "componentType" : 5123,
      "count" : 331,
      "type" : "VEC4"
    },
    {
      "bufferView" : 6,
      "normalized" : true,
      "componentType" : 5121,
      "count" : 331,
      "type" : "VEC4"
    },
    {
      "bufferView" : 7,
      "componentType" : 5126,
      "count" : 331,
      "type" : "VEC2"
    }
  ]
}
