{
  "asset" : {
    "generator" : "UE Viewer (umodel) build 1590",
    "version" : "2.0"
  },
  "scene" : 0,
  "scenes" : [
    {
      "nodes" : [ 0 ]
    }
  ],
  "nodes" : [
    {
      "name" : "mag3",
      "mesh" : 0,
      "skin" : 0,
      "children" : [ 1 ]
    },
    {
      "name" : "b_body",
      "translation" : [ 0, 0, -0 ],
      "rotation" : [ -0, -0, 0, -1 ]
    }
  ],
  "skins" : [
    {
      "inverseBindMatrices" : 0,
      "skeleton" : 1,
      "joints" : [
        1
      ]
    }
  ],
  "materials" : [
    {
      "name" : "mat_alien_rifle_mag",
      "pbrMetallicRoughness" : {
        "baseColorFactor" : [ 0.3, 0.3, 0.3, 1.0 ],
        "metallicFactor" : 0.1,
        "roughnessFactor" : 0.5
      }
    },
    {
      "name" : "mat_alien_ammo_INST",
      "pbrMetallicRoughness" : {
        "baseColorFactor" : [ 0.9, 0.3, 0.3, 1.0 ],
        "metallicFactor" : 0.1,
        "roughnessFactor" : 0.5
      }
    }
  ],
  "meshes" : [
    {
      "primitives" : [
        {
          "attributes" : {
            "POSITION" : 2,
            "NORMAL" : 3,
            "TANGENT" : 4,
            "JOINTS_0" : 5,
            "WEIGHTS_0" : 6,
            "TEXCOORD_0" : 7
          },
          "indices" : 1,
          "material" : 0
        },
        {
          "attributes" : {
            "POSITION" : 9,
            "NORMAL" : 10,
            "TANGENT" : 11,
            "JOINTS_0" : 12,
            "WEIGHTS_0" : 13,
            "TEXCOORD_0" : 14
          },
          "indices" : 8,
          "material" : 1
        }
      ],
      "name" : "mag3"
    }
  ],
  "buffers" : [
    {
      "uri" : "mag3.bin",
      "byteLength" : 16864
    }
  ],
  "bufferViews" : [
    {
      "buffer" : 0,
      "byteOffset" : 0,
      "byteLength" : 64
    },
    {
      "buffer" : 0,
      "byteOffset" : 64,
      "byteLength" : 1296
    },
    {
      "buffer" : 0,
      "byteOffset" : 1360,
      "byteLength" : 2136
    },
    {
      "buffer" : 0,
      "byteOffset" : 3496,
      "byteLength" : 2136
    },
    {
      "buffer" : 0,
      "byteOffset" : 5632,
      "byteLength" : 2848
    },
    {
      "buffer" : 0,
      "byteOffset" : 8480,
      "byteLength" : 1424
    },
    {
      "buffer" : 0,
      "byteOffset" : 9904,
      "byteLength" : 712
    },
    {
      "buffer" : 0,
      "byteOffset" : 10616,
      "byteLength" : 1424
    },
    {
      "buffer" : 0,
      "byteOffset" : 12040,
      "byteLength" : 624
    },
    {
      "buffer" : 0,
      "byteOffset" : 12664,
      "byteLength" : 840
    },
    {
      "buffer" : 0,
      "byteOffset" : 13504,
      "byteLength" : 840
    },
    {
      "buffer" : 0,
      "byteOffset" : 14344,
      "byteLength" : 1120
    },
    {
      "buffer" : 0,
      "byteOffset" : 15464,
      "byteLength" : 560
    },
    {
      "buffer" : 0,
      "byteOffset" : 16024,
      "byteLength" : 280
    },
    {
      "buffer" : 0,
      "byteOffset" : 16304,
      "byteLength" : 560
    }
  ],
  "accessors" : [
    {
      "bufferView" : 0,
      "componentType" : 5126,
      "count" : 1,
      "type" : "MAT4"
    },
    {
      "bufferView" : 1,
      "componentType" : 5123,
      "count" : 648,
      "type" : "SCALAR"
    },
    {
      "bufferView" : 2,
      "min" : [ -0.0176684, 0.0509426, -0.254393 ],
      "max" : [ 0.0176684, 0.0957296, -0.111303 ],
      "componentType" : 5126,
      "count" : 178,
      "type" : "VEC3"
    },
    {
      "bufferView" : 3,
      "componentType" : 5126,
      "count" : 178,
      "type" : "VEC3"
    },
    {
      "bufferView" : 4,
      "componentType" : 5126,
      "count" : 178,
      "type" : "VEC4"
    },
    {
      "bufferView" : 5,
      "componentType" : 5123,
      "count" : 178,
      "type" : "VEC4"
    },
    {
      "bufferView" : 6,
      "normalized" : true,
      "componentType" : 5121,
      "count" : 178,
      "type" : "VEC4"
    },
    {
      "bufferView" : 7,
      "componentType" : 5126,
      "count" : 178,
      "type" : "VEC2"
    },
    {
      "bufferView" : 8,
      "componentType" : 5123,
      "count" : 312,
      "type" : "SCALAR"
    },
    {
      "bufferView" : 9,
      "min" : [ -0.00715969, 0.0573991, -0.247549 ],
      "max" : [ 0.00912632, 0.0843531, -0.153524 ],
      "componentType" : 5126,
      "count" : 70,
      "type" : "VEC3"
    },
    {
      "bufferView" : 10,
      "componentType" : 5126,
      "count" : 70,
      "type" : "VEC3"
    },
    {
      "bufferView" : 11,
      "componentType" : 5126,
      "count" : 70,
      "type" : "VEC4"
    },
    {
      "bufferView" : 12,
      "componentType" : 5123,
      "count" : 70,
      "type" : "VEC4"
    },
    {
      "bufferView" : 13,
      "normalized" : true,
      "componentType" : 5121,
      "count" : 70,
      "type" : "VEC4"
    },
    {
      "bufferView" : 14,
      "componentType" : 5126,
      "count" : 70,
      "type" : "VEC2"
    }
  ]
}
