{
  "asset" : {
    "generator" : "UE Viewer (umodel) build 1590",
    "version" : "2.0"
  },
  "scene" : 0,
  "scenes" : [
    {
      "nodes" : [ 0 ]
    }
  ],
  "nodes" : [
    {
      "name" : "mag4",
      "mesh" : 0,
      "skin" : 0,
      "children" : [ 1 ]
    },
    {
      "name" : "b_body",
      "translation" : [ 0, 0, -0 ],
      "rotation" : [ -0, -0, 0, -1 ]
    }
  ],
  "skins" : [
    {
      "inverseBindMatrices" : 0,
      "skeleton" : 1,
      "joints" : [
        1
      ]
    }
  ],
  "materials" : [
    {
      "name" : "mat_alien_rifle_mag",
      "pbrMetallicRoughness" : {
        "baseColorFactor" : [ 0.3, 0.3, 0.3, 1.0 ],
        "metallicFactor" : 0.1,
        "roughnessFactor" : 0.5
      }
    },
    {
      "name" : "mat_alien_ammo_INST",
      "pbrMetallicRoughness" : {
        "baseColorFactor" : [ 0.9, 0.3, 0.3, 1.0 ],
        "metallicFactor" : 0.1,
        "roughnessFactor" : 0.5
      }
    }
  ],
  "meshes" : [
    {
      "primitives" : [
        {
          "attributes" : {
            "POSITION" : 2,
            "NORMAL" : 3,
            "TANGENT" : 4,
            "JOINTS_0" : 5,
            "WEIGHTS_0" : 6,
            "TEXCOORD_0" : 7
          },
          "indices" : 1,
          "material" : 0
        },
        {
          "attributes" : {
            "POSITION" : 9,
            "NORMAL" : 10,
            "TANGENT" : 11,
            "JOINTS_0" : 12,
            "WEIGHTS_0" : 13,
            "TEXCOORD_0" : 14
          },
          "indices" : 8,
          "material" : 1
        }
      ],
      "name" : "mag4"
    }
  ],
  "buffers" : [
    {
      "uri" : "mag4.bin",
      "byteLength" : 22204
    }
  ],
  "bufferViews" : [
    {
      "buffer" : 0,
      "byteOffset" : 0,
      "byteLength" : 64
    },
    {
      "buffer" : 0,
      "byteOffset" : 64,
      "byteLength" : 1368
    },
    {
      "buffer" : 0,
      "byteOffset" : 1432,
      "byteLength" : 2364
    },
    {
      "buffer" : 0,
      "byteOffset" : 3796,
      "byteLength" : 2364
    },
    {
      "buffer" : 0,
      "byteOffset" : 6160,
      "byteLength" : 3152
    },
    {
      "buffer" : 0,
      "byteOffset" : 9312,
      "byteLength" : 1576
    },
    {
      "buffer" : 0,
      "byteOffset" : 10888,
      "byteLength" : 788
    },
    {
      "buffer" : 0,
      "byteOffset" : 11676,
      "byteLength" : 1576
    },
    {
      "buffer" : 0,
      "byteOffset" : 13252,
      "byteLength" : 1152
    },
    {
      "buffer" : 0,
      "byteOffset" : 14404,
      "byteLength" : 1560
    },
    {
      "buffer" : 0,
      "byteOffset" : 15964,
      "byteLength" : 1560
    },
    {
      "buffer" : 0,
      "byteOffset" : 17524,
      "byteLength" : 2080
    },
    {
      "buffer" : 0,
      "byteOffset" : 19604,
      "byteLength" : 1040
    },
    {
      "buffer" : 0,
      "byteOffset" : 20644,
      "byteLength" : 520
    },
    {
      "buffer" : 0,
      "byteOffset" : 21164,
      "byteLength" : 1040
    }
  ],
  "accessors" : [
    {
      "bufferView" : 0,
      "componentType" : 5126,
      "count" : 1,
      "type" : "MAT4"
    },
    {
      "bufferView" : 1,
      "componentType" : 5123,
      "count" : 684,
      "type" : "SCALAR"
    },
    {
      "bufferView" : 2,
      "min" : [ -0.0219682, 0.0515796, -0.266372 ],
      "max" : [ 0.0219755, 0.114626, -0.106945 ],
      "componentType" : 5126,
      "count" : 197,
      "type" : "VEC3"
    },
    {
      "bufferView" : 3,
      "componentType" : 5126,
      "count" : 197,
      "type" : "VEC3"
    },
    {
      "bufferView" : 4,
      "componentType" : 5126,
      "count" : 197,
      "type" : "VEC4"
    },
    {
      "bufferView" : 5,
      "componentType" : 5123,
      "count" : 197,
      "type" : "VEC4"
    },
    {
      "bufferView" : 6,
      "normalized" : true,
      "componentType" : 5121,
      "count" : 197,
      "type" : "VEC4"
    },
    {
      "bufferView" : 7,
      "componentType" : 5126,
      "count" : 197,
      "type" : "VEC2"
    },
    {
      "bufferView" : 8,
      "componentType" : 5123,
      "count" : 576,
      "type" : "SCALAR"
    },
    {
      "bufferView" : 9,
      "min" : [ -0.0136942, 0.0572314, -0.262446 ],
      "max" : [ 0.0136942, 0.11308, -0.127416 ],
      "componentType" : 5126,
      "count" : 130,
      "type" : "VEC3"
    },
    {
      "bufferView" : 10,
      "componentType" : 5126,
      "count" : 130,
      "type" : "VEC3"
    },
    {
      "bufferView" : 11,
      "componentType" : 5126,
      "count" : 130,
      "type" : "VEC4"
    },
    {
      "bufferView" : 12,
      "componentType" : 5123,
      "count" : 130,
      "type" : "VEC4"
    },
    {
      "bufferView" : 13,
      "normalized" : true,
      "componentType" : 5121,
      "count" : 130,
      "type" : "VEC4"
    },
    {
      "bufferView" : 14,
      "componentType" : 5126,
      "count" : 130,
      "type" : "VEC2"
    }
  ]
}
