{
  "asset" : {
    "generator" : "UE Viewer (umodel) build 1590",
    "version" : "2.0"
  },
  "scene" : 0,
  "scenes" : [
    {
      "nodes" : [ 0 ]
    }
  ],
  "nodes" : [
    {
      "name" : "mag6",
      "mesh" : 0,
      "skin" : 0,
      "children" : [ 1 ]
    },
    {
      "name" : "b_body",
      "translation" : [ 0, 0, -0 ],
      "rotation" : [ -0, -0, 0, -1 ]
    }
  ],
  "skins" : [
    {
      "inverseBindMatrices" : 0,
      "skeleton" : 1,
      "joints" : [
        1
      ]
    }
  ],
  "materials" : [
    {
      "name" : "mat_alien_rifle_mag",
      "pbrMetallicRoughness" : {
        "baseColorFactor" : [ 0.3, 0.3, 0.3, 1.0 ],
        "metallicFactor" : 0.1,
        "roughnessFactor" : 0.5
      }
    },
    {
      "name" : "mat_alien_ammo_INST",
      "pbrMetallicRoughness" : {
        "baseColorFactor" : [ 0.9, 0.3, 0.3, 1.0 ],
        "metallicFactor" : 0.1,
        "roughnessFactor" : 0.5
      }
    }
  ],
  "meshes" : [
    {
      "primitives" : [
        {
          "attributes" : {
            "POSITION" : 2,
            "NORMAL" : 3,
            "TANGENT" : 4,
            "JOINTS_0" : 5,
            "WEIGHTS_0" : 6,
            "TEXCOORD_0" : 7
          },
          "indices" : 1,
          "material" : 0
        },
        {
          "attributes" : {
            "POSITION" : 9,
            "NORMAL" : 10,
            "TANGENT" : 11,
            "JOINTS_0" : 12,
            "WEIGHTS_0" : 13,
            "TEXCOORD_0" : 14
          },
          "indices" : 8,
          "material" : 1
        }
      ],
      "name" : "mag6"
    }
  ],
  "buffers" : [
    {
      "uri" : "mag6.bin",
      "byteLength" : 21552
    }
  ],
  "bufferViews" : [
    {
      "buffer" : 0,
      "byteOffset" : 0,
      "byteLength" : 64
    },
    {
      "buffer" : 0,
      "byteOffset" : 64,
      "byteLength" : 1688
    },
    {
      "buffer" : 0,
      "byteOffset" : 1752,
      "byteLength" : 2508
    },
    {
      "buffer" : 0,
      "byteOffset" : 4260,
      "byteLength" : 2508
    },
    {
      "buffer" : 0,
      "byteOffset" : 6768,
      "byteLength" : 3344
    },
    {
      "buffer" : 0,
      "byteOffset" : 10112,
      "byteLength" : 1672
    },
    {
      "buffer" : 0,
      "byteOffset" : 11784,
      "byteLength" : 836
    },
    {
      "buffer" : 0,
      "byteOffset" : 12620,
      "byteLength" : 1672
    },
    {
      "buffer" : 0,
      "byteOffset" : 14292,
      "byteLength" : 960
    },
    {
      "buffer" : 0,
      "byteOffset" : 15252,
      "byteLength" : 1260
    },
    {
      "buffer" : 0,
      "byteOffset" : 16512,
      "byteLength" : 1260
    },
    {
      "buffer" : 0,
      "byteOffset" : 17772,
      "byteLength" : 1680
    },
    {
      "buffer" : 0,
      "byteOffset" : 19452,
      "byteLength" : 840
    },
    {
      "buffer" : 0,
      "byteOffset" : 20292,
      "byteLength" : 420
    },
    {
      "buffer" : 0,
      "byteOffset" : 20712,
      "byteLength" : 840
    }
  ],
  "accessors" : [
    {
      "bufferView" : 0,
      "componentType" : 5126,
      "count" : 1,
      "type" : "MAT4"
    },
    {
      "bufferView" : 1,
      "componentType" : 5123,
      "count" : 843,
      "type" : "SCALAR"
    },
    {
      "bufferView" : 2,
      "min" : [ -0.0130992, 0.0516469, -0.322925 ],
      "max" : [ 0.0130992, 0.115832, -0.106651 ],
      "componentType" : 5126,
      "count" : 209,
      "type" : "VEC3"
    },
    {
      "bufferView" : 3,
      "componentType" : 5126,
      "count" : 209,
      "type" : "VEC3"
    },
    {
      "bufferView" : 4,
      "componentType" : 5126,
      "count" : 209,
      "type" : "VEC4"
    },
    {
      "bufferView" : 5,
      "componentType" : 5123,
      "count" : 209,
      "type" : "VEC4"
    },
    {
      "bufferView" : 6,
      "normalized" : true,
      "componentType" : 5121,
      "count" : 209,
      "type" : "VEC4"
    },
    {
      "bufferView" : 7,
      "componentType" : 5126,
      "count" : 209,
      "type" : "VEC2"
    },
    {
      "bufferView" : 8,
      "componentType" : 5123,
      "count" : 480,
      "type" : "SCALAR"
    },
    {
      "bufferView" : 9,
      "min" : [ -0.00936028, 0.0571384, -0.301899 ],
      "max" : [ 0.0104402, 0.111889, -0.165751 ],
      "componentType" : 5126,
      "count" : 105,
      "type" : "VEC3"
    },
    {
      "bufferView" : 10,
      "componentType" : 5126,
      "count" : 105,
      "type" : "VEC3"
    },
    {
      "bufferView" : 11,
      "componentType" : 5126,
      "count" : 105,
      "type" : "VEC4"
    },
    {
      "bufferView" : 12,
      "componentType" : 5123,
      "count" : 105,
      "type" : "VEC4"
    },
    {
      "bufferView" : 13,
      "normalized" : true,
      "componentType" : 5121,
      "count" : 105,
      "type" : "VEC4"
    },
    {
      "bufferView" : 14,
      "componentType" : 5126,
      "count" : 105,
      "type" : "VEC2"
    }
  ]
}
