{
  "asset" : {
    "generator" : "UE Viewer (umodel) build 1590",
    "version" : "2.0"
  },
  "scene" : 0,
  "scenes" : [
    {
      "nodes" : [ 0 ]
    }
  ],
  "nodes" : [
    {
      "name" : "sight3",
      "mesh" : 0,
      "skin" : 0,
      "children" : [ 1 ]
    },
    {
      "name" : "b_body",
      "translation" : [ 0, 0, -0 ],
      "rotation" : [ -0, -0, 0, -1 ]
    }
  ],
  "skins" : [
    {
      "inverseBindMatrices" : 0,
      "skeleton" : 1,
      "joints" : [
        1
      ]
    }
  ],
  "materials" : [
    {
      "name" : "mat_alien_rifle_INST",
      "pbrMetallicRoughness" : {
        "baseColorFactor" : [ 0.3, 0.3, 0.3, 1.0 ],
        "metallicFactor" : 0.1,
        "roughnessFactor" : 0.5
      }
    }
  ],
  "meshes" : [
    {
      "primitives" : [
        {
          "attributes" : {
            "POSITION" : 2,
            "NORMAL" : 3,
            "TANGENT" : 4,
            "JOINTS_0" : 5,
            "WEIGHTS_0" : 6,
            "TEXCOORD_0" : 7
          },
          "indices" : 1,
          "material" : 0
        }
      ],
      "name" : "sight3"
    }
  ],
  "buffers" : [
    {
      "uri" : "sight3.bin",
      "byteLength" : 38352
    }
  ],
  "bufferViews" : [
    {
      "buffer" : 0,
      "byteOffset" : 0,
      "byteLength" : 64
    },
    {
      "buffer" : 0,
      "byteOffset" : 64,
      "byteLength" : 4328
    },
    {
      "buffer" : 0,
      "byteOffset" : 4392,
      "byteLength" : 6792
    },
    {
      "buffer" : 0,
      "byteOffset" : 11184,
      "byteLength" : 6792
    },
    {
      "buffer" : 0,
      "byteOffset" : 17976,
      "byteLength" : 9056
    },
    {
      "buffer" : 0,
      "byteOffset" : 27032,
      "byteLength" : 4528
    },
    {
      "buffer" : 0,
      "byteOffset" : 31560,
      "byteLength" : 2264
    },
    {
      "buffer" : 0,
      "byteOffset" : 33824,
      "byteLength" : 4528
    }
  ],
  "accessors" : [
    {
      "bufferView" : 0,
      "componentType" : 5126,
      "count" : 1,
      "type" : "MAT4"
    },
    {
      "bufferView" : 1,
      "componentType" : 5123,
      "count" : 2163,
      "type" : "SCALAR"
    },
    {
      "bufferView" : 2,
      "min" : [ -0.0169813, 0.0742178, -0.377328 ],
      "max" : [ 0.016981, 0.144539, 0.034356 ],
      "componentType" : 5126,
      "count" : 566,
      "type" : "VEC3"
    },
    {
      "bufferView" : 3,
      "componentType" : 5126,
      "count" : 566,
      "type" : "VEC3"
    },
    {
      "bufferView" : 4,
      "componentType" : 5126,
      "count" : 566,
      "type" : "VEC4"
    },
    {
      "bufferView" : 5,
      "componentType" : 5123,
      "count" : 566,
      "type" : "VEC4"
    },
    {
      "bufferView" : 6,
      "normalized" : true,
      "componentType" : 5121,
      "count" : 566,
      "type" : "VEC4"
    },
    {
      "bufferView" : 7,
      "componentType" : 5126,
      "count" : 566,
      "type" : "VEC2"
    }
  ]
}
