{
  "asset" : {
    "generator" : "UE Viewer (umodel) build 1590",
    "version" : "2.0"
  },
  "scene" : 0,
  "scenes" : [
    {
      "nodes" : [ 0 ]
    }
  ],
  "nodes" : [
    {
      "name" : "sight6",
      "mesh" : 0,
      "skin" : 0,
      "children" : [ 1 ]
    },
    {
      "name" : "b_body",
      "translation" : [ 0, 0, -0 ],
      "rotation" : [ -0, -0, 0, -1 ]
    }
  ],
  "skins" : [
    {
      "inverseBindMatrices" : 0,
      "skeleton" : 1,
      "joints" : [
        1
      ]
    }
  ],
  "materials" : [
    {
      "name" : "mat_alien_rifle_INST",
      "pbrMetallicRoughness" : {
        "baseColorFactor" : [ 0.3, 0.3, 0.3, 1.0 ],
        "metallicFactor" : 0.1,
        "roughnessFactor" : 0.5
      }
    }
  ],
  "meshes" : [
    {
      "primitives" : [
        {
          "attributes" : {
            "POSITION" : 2,
            "NORMAL" : 3,
            "TANGENT" : 4,
            "JOINTS_0" : 5,
            "WEIGHTS_0" : 6,
            "TEXCOORD_0" : 7
          },
          "indices" : 1,
          "material" : 0
        }
      ],
      "name" : "sight6"
    }
  ],
  "buffers" : [
    {
      "uri" : "sight6.bin",
      "byteLength" : 48088
    }
  ],
  "bufferViews" : [
    {
      "buffer" : 0,
      "byteOffset" : 0,
      "byteLength" : 64
    },
    {
      "buffer" : 0,
      "byteOffset" : 64,
      "byteLength" : 5424
    },
    {
      "buffer" : 0,
      "byteOffset" : 5488,
      "byteLength" : 8520
    },
    {
      "buffer" : 0,
      "byteOffset" : 14008,
      "byteLength" : 8520
    },
    {
      "buffer" : 0,
      "byteOffset" : 22528,
      "byteLength" : 11360
    },
    {
      "buffer" : 0,
      "byteOffset" : 33888,
      "byteLength" : 5680
    },
    {
      "buffer" : 0,
      "byteOffset" : 39568,
      "byteLength" : 2840
    },
    {
      "buffer" : 0,
      "byteOffset" : 42408,
      "byteLength" : 5680
    }
  ],
  "accessors" : [
    {
      "bufferView" : 0,
      "componentType" : 5126,
      "count" : 1,
      "type" : "MAT4"
    },
    {
      "bufferView" : 1,
      "componentType" : 5123,
      "count" : 2712,
      "type" : "SCALAR"
    },
    {
      "bufferView" : 2,
      "min" : [ -0.0407246, 0.0620217, -0.478015 ],
      "max" : [ 0.0407246, 0.202114, 0.0391125 ],
      "componentType" : 5126,
      "count" : 710,
      "type" : "VEC3"
    },
    {
      "bufferView" : 3,
      "componentType" : 5126,
      "count" : 710,
      "type" : "VEC3"
    },
    {
      "bufferView" : 4,
      "componentType" : 5126,
      "count" : 710,
      "type" : "VEC4"
    },
    {
      "bufferView" : 5,
      "componentType" : 5123,
      "count" : 710,
      "type" : "VEC4"
    },
    {
      "bufferView" : 6,
      "normalized" : true,
      "componentType" : 5121,
      "count" : 710,
      "type" : "VEC4"
    },
    {
      "bufferView" : 7,
      "componentType" : 5126,
      "count" : 710,
      "type" : "VEC2"
    }
  ]
}
