{
  "asset" : {
    "generator" : "UE Viewer (umodel) build 1590",
    "version" : "2.0"
  },
  "scene" : 0,
  "scenes" : [
    {
      "nodes" : [ 0 ]
    }
  ],
  "nodes" : [
    {
      "name" : "sight2",
      "mesh" : 0,
      "skin" : 0,
      "children" : [ 1 ]
    },
    {
      "name" : "b_body",
      "translation" : [ 0, 0, -0 ],
      "rotation" : [ -0, -0, 0, -1 ]
    }
  ],
  "skins" : [
    {
      "inverseBindMatrices" : 0,
      "skeleton" : 1,
      "joints" : [
        1
      ]
    }
  ],
  "materials" : [
    {
      "name" : "mat_alien_rifle_INST",
      "pbrMetallicRoughness" : {
        "baseColorFactor" : [ 0.3, 0.3, 0.3, 1.0 ],
        "metallicFactor" : 0.1,
        "roughnessFactor" : 0.5
      }
    }
  ],
  "meshes" : [
    {
      "primitives" : [
        {
          "attributes" : {
            "POSITION" : 2,
            "NORMAL" : 3,
            "TANGENT" : 4,
            "JOINTS_0" : 5,
            "WEIGHTS_0" : 6,
            "TEXCOORD_0" : 7
          },
          "indices" : 1,
          "material" : 0
        }
      ],
      "name" : "sight2"
    }
  ],
  "buffers" : [
    {
      "uri" : "sight2.bin",
      "byteLength" : 54256
    }
  ],
  "bufferViews" : [
    {
      "buffer" : 0,
      "byteOffset" : 0,
      "byteLength" : 64
    },
    {
      "buffer" : 0,
      "byteOffset" : 64,
      "byteLength" : 6372
    },
    {
      "buffer" : 0,
      "byteOffset" : 6436,
      "byteLength" : 9564
    },
    {
      "buffer" : 0,
      "byteOffset" : 16000,
      "byteLength" : 9564
    },
    {
      "buffer" : 0,
      "byteOffset" : 25564,
      "byteLength" : 12752
    },
    {
      "buffer" : 0,
      "byteOffset" : 38316,
      "byteLength" : 6376
    },
    {
      "buffer" : 0,
      "byteOffset" : 44692,
      "byteLength" : 3188
    },
    {
      "buffer" : 0,
      "byteOffset" : 47880,
      "byteLength" : 6376
    }
  ],
  "accessors" : [
    {
      "bufferView" : 0,
      "componentType" : 5126,
      "count" : 1,
      "type" : "MAT4"
    },
    {
      "bufferView" : 1,
      "componentType" : 5123,
      "count" : 3186,
      "type" : "SCALAR"
    },
    {
      "bufferView" : 2,
      "min" : [ -0.0217542, 0.0769215, -0.320846 ],
      "max" : [ 0.0219322, 0.172133, 0.0405281 ],
      "componentType" : 5126,
      "count" : 797,
      "type" : "VEC3"
    },
    {
      "bufferView" : 3,
      "componentType" : 5126,
      "count" : 797,
      "type" : "VEC3"
    },
    {
      "bufferView" : 4,
      "componentType" : 5126,
      "count" : 797,
      "type" : "VEC4"
    },
    {
      "bufferView" : 5,
      "componentType" : 5123,
      "count" : 797,
      "type" : "VEC4"
    },
    {
      "bufferView" : 6,
      "normalized" : true,
      "componentType" : 5121,
      "count" : 797,
      "type" : "VEC4"
    },
    {
      "bufferView" : 7,
      "componentType" : 5126,
      "count" : 797,
      "type" : "VEC2"
    }
  ]
}
