{
  "asset" : {
    "generator" : "UE Viewer (umodel) build 1590",
    "version" : "2.0"
  },
  "scene" : 0,
  "scenes" : [
    {
      "nodes" : [ 0 ]
    }
  ],
  "nodes" : [
    {
      "name" : "stock3",
      "mesh" : 0,
      "skin" : 0,
      "children" : [ 1 ]
    },
    {
      "name" : "b_body",
      "translation" : [ 0, 0, -0 ],
      "rotation" : [ -0, -0, 0, -1 ]
    }
  ],
  "skins" : [
    {
      "inverseBindMatrices" : 0,
      "skeleton" : 1,
      "joints" : [
        1
      ]
    }
  ],
  "materials" : [
    {
      "name" : "mat_alien_rifle_INST",
      "pbrMetallicRoughness" : {
        "baseColorFactor" : [ 0.3, 0.3, 0.3, 1.0 ],
        "metallicFactor" : 0.1,
        "roughnessFactor" : 0.5
      }
    }
  ],
  "meshes" : [
    {
      "primitives" : [
        {
          "attributes" : {
            "POSITION" : 2,
            "NORMAL" : 3,
            "TANGENT" : 4,
            "JOINTS_0" : 5,
            "WEIGHTS_0" : 6,
            "TEXCOORD_0" : 7
          },
          "indices" : 1,
          "material" : 0
        }
      ],
      "name" : "stock3"
    }
  ],
  "buffers" : [
    {
      "uri" : "stock3.bin",
      "byteLength" : 30796
    }
  ],
  "bufferViews" : [
    {
      "buffer" : 0,
      "byteOffset" : 0,
      "byteLength" : 64
    },
    {
      "buffer" : 0,
      "byteOffset" : 64,
      "byteLength" : 3972
    },
    {
      "buffer" : 0,
      "byteOffset" : 4036,
      "byteLength" : 5352
    },
    {
      "buffer" : 0,
      "byteOffset" : 9388,
      "byteLength" : 5352
    },
    {
      "buffer" : 0,
      "byteOffset" : 14740,
      "byteLength" : 7136
    },
    {
      "buffer" : 0,
      "byteOffset" : 21876,
      "byteLength" : 3568
    },
    {
      "buffer" : 0,
      "byteOffset" : 25444,
      "byteLength" : 1784
    },
    {
      "buffer" : 0,
      "byteOffset" : 27228,
      "byteLength" : 3568
    }
  ],
  "accessors" : [
    {
      "bufferView" : 0,
      "componentType" : 5126,
      "count" : 1,
      "type" : "MAT4"
    },
    {
      "bufferView" : 1,
      "componentType" : 5123,
      "count" : 1986,
      "type" : "SCALAR"
    },
    {
      "bufferView" : 2,
      "min" : [ -0.018658, -0.0417248, 0.147174 ],
      "max" : [ 0.0186579, 0.0509865, 0.442848 ],
      "componentType" : 5126,
      "count" : 446,
      "type" : "VEC3"
    },
    {
      "bufferView" : 3,
      "componentType" : 5126,
      "count" : 446,
      "type" : "VEC3"
    },
    {
      "bufferView" : 4,
      "componentType" : 5126,
      "count" : 446,
      "type" : "VEC4"
    },
    {
      "bufferView" : 5,
      "componentType" : 5123,
      "count" : 446,
      "type" : "VEC4"
    },
    {
      "bufferView" : 6,
      "normalized" : true,
      "componentType" : 5121,
      "count" : 446,
      "type" : "VEC4"
    },
    {
      "bufferView" : 7,
      "componentType" : 5126,
      "count" : 446,
      "type" : "VEC2"
    }
  ]
}
