{
  "asset" : {
    "generator" : "UE Viewer (umodel) build 1590",
    "version" : "2.0"
  },
  "scene" : 0,
  "scenes" : [
    {
      "nodes" : [ 0 ]
    }
  ],
  "nodes" : [
    {
      "name" : "stock4",
      "mesh" : 0,
      "skin" : 0,
      "children" : [ 1 ]
    },
    {
      "name" : "b_body",
      "translation" : [ 0, 0, -0 ],
      "rotation" : [ -0, -0, 0, -1 ]
    }
  ],
  "skins" : [
    {
      "inverseBindMatrices" : 0,
      "skeleton" : 1,
      "joints" : [
        1
      ]
    }
  ],
  "materials" : [
    {
      "name" : "mat_alien_rifle_INST",
      "pbrMetallicRoughness" : {
        "baseColorFactor" : [ 0.3, 0.3, 0.3, 1.0 ],
        "metallicFactor" : 0.1,
        "roughnessFactor" : 0.5
      }
    }
  ],
  "meshes" : [
    {
      "primitives" : [
        {
          "attributes" : {
            "POSITION" : 2,
            "NORMAL" : 3,
            "TANGENT" : 4,
            "JOINTS_0" : 5,
            "WEIGHTS_0" : 6,
            "TEXCOORD_0" : 7
          },
          "indices" : 1,
          "material" : 0
        }
      ],
      "name" : "stock4"
    }
  ],
  "buffers" : [
    {
      "uri" : "stock4.bin",
      "byteLength" : 32476
    }
  ],
  "bufferViews" : [
    {
      "buffer" : 0,
      "byteOffset" : 0,
      "byteLength" : 64
    },
    {
      "buffer" : 0,
      "byteOffset" : 64,
      "byteLength" : 2472
    },
    {
      "buffer" : 0,
      "byteOffset" : 2536,
      "byteLength" : 5988
    },
    {
      "buffer" : 0,
      "byteOffset" : 8524,
      "byteLength" : 5988
    },
    {
      "buffer" : 0,
      "byteOffset" : 14512,
      "byteLength" : 7984
    },
    {
      "buffer" : 0,
      "byteOffset" : 22496,
      "byteLength" : 3992
    },
    {
      "buffer" : 0,
      "byteOffset" : 26488,
      "byteLength" : 1996
    },
    {
      "buffer" : 0,
      "byteOffset" : 28484,
      "byteLength" : 3992
    }
  ],
  "accessors" : [
    {
      "bufferView" : 0,
      "componentType" : 5126,
      "count" : 1,
      "type" : "MAT4"
    },
    {
      "bufferView" : 1,
      "componentType" : 5123,
      "count" : 1236,
      "type" : "SCALAR"
    },
    {
      "bufferView" : 2,
      "min" : [ -0.0200756, -0.0736777, 0.146953 ],
      "max" : [ 0.0200757, 0.0415531, 0.448794 ],
      "componentType" : 5126,
      "count" : 499,
      "type" : "VEC3"
    },
    {
      "bufferView" : 3,
      "componentType" : 5126,
      "count" : 499,
      "type" : "VEC3"
    },
    {
      "bufferView" : 4,
      "componentType" : 5126,
      "count" : 499,
      "type" : "VEC4"
    },
    {
      "bufferView" : 5,
      "componentType" : 5123,
      "count" : 499,
      "type" : "VEC4"
    },
    {
      "bufferView" : 6,
      "normalized" : true,
      "componentType" : 5121,
      "count" : 499,
      "type" : "VEC4"
    },
    {
      "bufferView" : 7,
      "componentType" : 5126,
      "count" : 499,
      "type" : "VEC2"
    }
  ]
}
