{
  "asset" : {
    "generator" : "UE Viewer (umodel) build 1590",
    "version" : "2.0"
  },
  "scene" : 0,
  "scenes" : [
    {
      "nodes" : [ 0 ]
    }
  ],
  "nodes" : [
    {
      "name" : "barrel2",
      "mesh" : 0,
      "skin" : 0,
      "children" : [ 1 ]
    },
    {
      "name" : "b_body",
      "children" : [ 2, 3, 4 ],
      "translation" : [ -4.77367e-09, 0, -0 ],
      "rotation" : [ -4.37114e-08, -7.54979e-08, -7.54979e-08, -1 ]
    },
    {
      "name" : "b_mag",
      "translation" : [ 0.00289932, 0.0261961, -0.158505 ],
      "rotation" : [ -4.37114e-08, -7.54979e-08, -7.54979e-08, -1 ]
    },
    {
      "name" : "b_trigger",
      "translation" : [ -6.46606e-09, -1.69238e-09, 0.0387172 ],
      "rotation" : [ -4.37114e-08, -7.54979e-08, -7.54979e-08, -1 ]
    },
    {
      "name" : "b_charge",
      "translation" : [ -0.0307237, 0.119354, -0.206471 ],
      "rotation" : [ -4.37114e-08, -7.54979e-08, -7.54979e-08, -1 ]
    }
  ],
  "skins" : [
    {
      "inverseBindMatrices" : 0,
      "skeleton" : 1,
      "joints" : [
        1,2,3,4
      ]
    }
  ],
  "materials" : [
    {
      "name" : "mat_combat_rifle_INST",
      "pbrMetallicRoughness" : {
        "baseColorFactor" : [ 0.3, 0.3, 0.3, 1.0 ],
        "metallicFactor" : 0.1,
        "roughnessFactor" : 0.5
      }
    }
  ],
  "meshes" : [
    {
      "primitives" : [
        {
          "attributes" : {
            "POSITION" : 2,
            "NORMAL" : 3,
            "TANGENT" : 4,
            "JOINTS_0" : 5,
            "WEIGHTS_0" : 6,
            "TEXCOORD_0" : 7
          },
          "indices" : 1,
          "material" : 0
        }
      ],
      "name" : "barrel2"
    }
  ],
  "buffers" : [
    {
      "uri" : "barrel2.bin",
      "byteLength" : 30544
    }
  ],
  "bufferViews" : [
    {
      "buffer" : 0,
      "byteOffset" : 0,
      "byteLength" : 256
    },
    {
      "buffer" : 0,
      "byteOffset" : 256,
      "byteLength" : 2628
    },
    {
      "buffer" : 0,
      "byteOffset" : 2884,
      "byteLength" : 5532
    },
    {
      "buffer" : 0,
      "byteOffset" : 8416,
      "byteLength" : 5532
    },
    {
      "buffer" : 0,
      "byteOffset" : 13948,
      "byteLength" : 7376
    },
    {
      "buffer" : 0,
      "byteOffset" : 21324,
      "byteLength" : 3688
    },
    {
      "buffer" : 0,
      "byteOffset" : 25012,
      "byteLength" : 1844
    },
    {
      "buffer" : 0,
      "byteOffset" : 26856,
      "byteLength" : 3688
    }
  ],
  "accessors" : [
    {
      "bufferView" : 0,
      "componentType" : 5126,
      "count" : 4,
      "type" : "MAT4"
    },
    {
      "bufferView" : 1,
      "componentType" : 5123,
      "count" : 1314,
      "type" : "SCALAR"
    },
    {
      "bufferView" : 2,
      "min" : [ -0.0293979, 0.0506751, -0.708624 ],
      "max" : [ 0.0289597, 0.177064, -0.228765 ],
      "componentType" : 5126,
      "count" : 461,
      "type" : "VEC3"
    },
    {
      "bufferView" : 3,
      "componentType" : 5126,
      "count" : 461,
      "type" : "VEC3"
    },
    {
      "bufferView" : 4,
      "componentType" : 5126,
      "count" : 461,
      "type" : "VEC4"
    },
    {
      "bufferView" : 5,
      "componentType" : 5123,
      "count" : 461,
      "type" : "VEC4"
    },
    {
      "bufferView" : 6,
      "normalized" : true,
      "componentType" : 5121,
      "count" : 461,
      "type" : "VEC4"
    },
    {
      "bufferView" : 7,
      "componentType" : 5126,
      "count" : 461,
      "type" : "VEC2"
    }
  ]
}
