<?xml version="1.0" encoding="UTF-8" standalone="no"?>
<svg xmlns:ffdec="https://www.free-decompiler.com/flash" xmlns:xlink="http://www.w3.org/1999/xlink" ffdec:objectType="shape" height="11.0px" width="18.0px" xmlns="http://www.w3.org/2000/svg">
  <g transform="matrix(1.0, 0.0, 0.0, 1.0, 0.0, 0.0)">
    <path d="M18.0 11.0 L0.05 11.0 0.05 0.0 9.55 0.0 14.0 0.0 Q15.65 0.0 16.85 1.15 18.0 2.3 18.0 4.0 L18.0 11.0" fill="url(#gradient0)" fill-rule="evenodd" stroke="none"/>
    <path d="M16.0 10.0 L0.0 10.0 0.0 1.0 13.1 1.0 Q14.35 1.1 15.15 1.95 16.0 2.8 16.0 4.0 L16.0 10.0" fill="url(#gradient1)" fill-rule="evenodd" stroke="none"/>
    <path d="M1.0 8.1 L1.0 7.1 2.4 7.05 Q6.55 6.7 13.15 5.15 L14.85 4.85 15.8 4.9 16.15 5.1 16.25 5.45 16.05 5.75 16.0 5.8 15.75 5.85 15.7 5.85 15.05 5.8 14.85 5.8 13.4 6.05 8.45 7.15 8.1 7.25 4.7 7.85 2.5 8.05 1.0 8.1" fill="#4c2600" fill-opacity="0.3019608" fill-rule="evenodd" stroke="none"/>
    <path d="M1.0 8.1 L2.5 8.05 4.7 7.85 8.1 7.25 8.45 7.15 13.4 6.05 14.85 5.8 15.05 5.8 15.7 5.85 15.75 5.85 16.0 5.8 16.0 5.85 15.85 6.2 15.5 6.3 13.4 6.6 8.85 7.65 2.5 8.65 1.0 8.7 1.0 8.1" fill="#ffffff" fill-opacity="0.101960786" fill-rule="evenodd" stroke="none"/>
    <path d="M16.1 2.75 L16.3 2.95 16.15 3.2 15.8 3.3 6.25 3.55 Q5.85 3.65 4.4 4.5 2.75 5.4 1.85 5.35 L1.0 5.35 1.0 4.7 1.9 4.75 3.7 4.0 Q5.45 3.0 6.0 2.95 L15.75 2.7 16.1 2.75" fill="#4c2600" fill-opacity="0.2509804" fill-rule="evenodd" stroke="none"/>
    <path d="M16.15 8.0 L16.15 9.95 5.8 9.95 5.85 9.75 Q5.9 9.6 6.1 9.55 L7.55 9.05 Q9.3 8.5 10.6 8.5 12.5 8.5 15.5 7.55 L15.8 7.55 16.05 7.7 16.15 8.0 M15.15 8.7 L10.9 9.5 15.15 9.5 15.15 8.7" fill="url(#gradient2)" fill-rule="evenodd" stroke="none"/>
    <path d="M17.0 3.95 L17.0 9.95 15.95 9.95 15.95 4.0 Q15.95 2.75 15.05 1.9 14.15 1.0 13.25 1.0 L14.0 1.0 Q15.25 1.0 16.1 1.85 L16.15 1.9 Q16.95 2.75 17.0 3.85 L17.0 3.95" fill="url(#gradient3)" fill-rule="evenodd" stroke="none"/>
    <path d="M1.0 1.0 L1.0 9.95 0.0 9.95 0.0 1.0 1.0 1.0" fill="#ffffff" fill-opacity="0.3019608" fill-rule="evenodd" stroke="none"/>
    <path d="M11.0 6.05 L11.0 7.0 6.0 7.0 6.0 6.05 7.0 6.05 7.0 5.05 8.0 5.05 8.0 4.0 9.0 4.0 9.0 5.05 10.0 5.05 10.0 6.05 11.0 6.05" fill="#331a00" fill-rule="evenodd" stroke="none"/>
    <path d="M12.0 7.0 L12.0 7.8 5.0 7.8 5.0 7.0 12.0 7.0" fill="#dbdfe8" fill-opacity="0.5019608" fill-rule="evenodd" stroke="none"/>
  </g>
  <defs>
    <linearGradient gradientTransform="matrix(0.0, 0.0134, -0.0134, 0.0, -37.1, 10.95)" gradientUnits="userSpaceOnUse" id="gradient0" spreadMethod="pad" x1="-819.2" x2="819.2">
      <stop offset="0.0" stop-color="#4c2600"/>
      <stop offset="1.0" stop-color="#a45200"/>
    </linearGradient>
    <linearGradient gradientTransform="matrix(0.0, 0.0122, -0.0123, 0.0, -36.3, 11.0)" gradientUnits="userSpaceOnUse" id="gradient1" spreadMethod="pad" x1="-819.2" x2="819.2">
      <stop offset="0.0" stop-color="#ecccac"/>
      <stop offset="0.08235294117647059" stop-color="#c2762c"/>
      <stop offset="1.0" stop-color="#763c01"/>
    </linearGradient>
    <linearGradient gradientTransform="matrix(0.0, -0.0014, 0.0018, 0.0, 10.95, 9.6)" gradientUnits="userSpaceOnUse" id="gradient2" spreadMethod="pad" x1="-819.2" x2="819.2">
      <stop offset="0.0" stop-color="#8f4701" stop-opacity="0.7019608"/>
      <stop offset="1.0" stop-color="#653201" stop-opacity="0.7019608"/>
    </linearGradient>
    <linearGradient gradientTransform="matrix(0.0, -0.0121, 0.0125, 0.0, -15.8, 10.95)" gradientUnits="userSpaceOnUse" id="gradient3" spreadMethod="pad" x1="-819.2" x2="819.2">
      <stop offset="0.0" stop-color="#4d2600"/>
      <stop offset="1.0" stop-color="#874301"/>
    </linearGradient>
  </defs>
</svg>
