<?xml version="1.0" encoding="UTF-8" standalone="no"?>
<svg xmlns:ffdec="https://www.free-decompiler.com/flash" xmlns:xlink="http://www.w3.org/1999/xlink" ffdec:objectType="shape" height="17.95px" width="18.0px" xmlns="http://www.w3.org/2000/svg">
  <g transform="matrix(1.0, 0.0, 0.0, 1.0, 0.0, 0.0)">
    <path d="M6.35 0.0 L14.0 0.0 Q15.65 0.0 16.85 1.15 18.0 2.3 18.0 4.0 L18.0 13.95 Q18.0 15.6 16.85 16.8 15.65 17.95 14.0 17.95 L6.35 17.95 6.35 0.0" fill="url(#gradient0)" fill-rule="evenodd" stroke="none"/>
    <path d="M6.35 17.95 L4.0 17.95 Q2.3 17.95 1.15 16.8 0.0 15.6 0.0 13.95 L0.0 4.0 Q0.0 2.3 1.15 1.15 2.3 0.0 4.0 0.0 L6.35 0.0 6.35 17.95" fill="url(#gradient1)" fill-rule="evenodd" stroke="none"/>
    <path d="M6.35 1.0 L6.35 17.05 4.95 17.05 Q3.75 17.05 2.9 16.2 2.0 15.3 2.0 14.05 L2.0 4.0 Q2.0 2.75 2.9 1.9 3.8 1.0 4.95 1.0 L6.35 1.0" fill="url(#gradient2)" fill-rule="evenodd" stroke="none"/>
    <path d="M6.35 1.0 L13.0 1.0 Q14.2 1.05 15.05 1.85 15.95 2.75 15.95 4.0 L15.95 14.05 Q15.95 15.25 15.1 16.1 14.3 17.0 13.05 17.05 L6.35 17.05 6.35 1.0" fill="url(#gradient3)" fill-rule="evenodd" stroke="none"/>
    <path d="M11.9 11.8 L13.75 10.2 Q15.35 8.65 16.25 8.65 L16.25 9.65 Q15.65 9.75 14.45 10.9 L12.2 12.75 2.25 13.7 1.9 13.6 1.7 13.25 1.85 12.9 Q1.95 12.7 2.2 12.7 L11.9 11.8 M16.25 1.9 L16.25 2.5 6.85 2.15 3.05 2.0 2.7 1.9 2.55 1.7 2.7 1.5 3.05 1.4 6.8 1.5 16.25 1.9" fill="#4c2600" fill-opacity="0.2509804" fill-rule="evenodd" stroke="none"/>
    <path d="M16.25 4.8 L13.9 4.25 12.1 4.0 11.35 3.9 10.25 3.75 9.2 3.65 8.85 3.65 8.3 3.6 5.6 3.45 5.4 3.45 2.35 3.35 2.2 3.35 2.15 3.35 2.0 3.35 1.8 3.2 1.65 2.85 1.8 2.5 2.15 2.35 10.15 2.75 14.1 3.25 16.25 3.75 16.25 4.8" fill="#4c2600" fill-opacity="0.3019608" fill-rule="evenodd" stroke="none"/>
    <path d="M16.25 4.8 L16.25 5.35 13.9 4.8 8.35 4.1 5.55 3.95 2.3 3.8 Q2.05 3.8 1.95 3.65 L1.8 3.3 1.8 3.2 2.0 3.35 2.15 3.35 2.2 3.35 2.35 3.35 5.4 3.45 5.6 3.45 8.3 3.6 8.85 3.65 9.2 3.65 10.25 3.75 11.35 3.9 12.1 4.0 13.9 4.25 16.25 4.8 M2.1 15.55 L2.25 15.55 2.5 15.35 2.9 15.35 3.75 15.6 4.6 15.45 4.65 15.45 4.85 15.4 4.9 15.35 4.95 15.35 6.4 15.3 7.1 15.3 7.25 15.3 10.35 15.45 10.45 15.45 10.7 15.45 11.3 15.25 12.6 14.55 14.4 13.6 15.35 13.4 15.45 13.4 16.25 13.35 16.25 13.95 15.35 14.0 Q14.35 14.0 13.05 14.95 L13.05 15.0 11.6 15.75 10.35 16.05 7.1 15.9 4.75 16.05 2.35 15.85 2.1 15.6 2.1 15.55" fill="#ffffff" fill-opacity="0.101960786" fill-rule="evenodd" stroke="none"/>
    <path d="M16.25 13.35 L15.45 13.4 15.35 13.4 14.4 13.6 12.6 14.55 11.3 15.25 10.7 15.45 10.45 15.45 10.35 15.45 7.25 15.3 7.1 15.3 6.4 15.3 4.95 15.35 4.9 15.35 4.85 15.4 4.65 15.45 4.6 15.45 3.75 15.6 2.9 15.35 2.5 15.35 2.25 15.55 2.1 15.55 1.65 15.45 1.3 15.25 1.2 14.9 1.4 14.55 1.8 14.45 4.4 14.5 4.5 14.45 4.6 14.45 7.15 14.3 10.4 14.45 11.0 14.4 10.95 14.4 12.5 13.55 Q14.15 12.4 15.35 12.4 L16.25 12.35 16.25 13.35" fill="#321900" fill-opacity="0.3019608" fill-rule="evenodd" stroke="none"/>
    <path d="M1.55 5.6 L1.55 4.8 5.3 4.8 6.8 4.55 9.05 4.8 10.7 5.8 Q11.5 6.3 11.75 6.25 10.7 6.55 9.6 7.0 9.15 7.2 8.65 8.35 8.25 9.35 7.45 9.25 6.05 9.05 1.55 9.25 L1.55 8.35 3.15 8.35 5.5 8.35 Q6.0 8.45 6.3 7.8 6.65 7.1 6.95 7.0 L8.4 6.5 7.7 6.2 6.6 5.6 5.05 5.45 4.0 5.6 1.55 5.6" fill="url(#gradient4)" fill-rule="evenodd" stroke="none"/>
    <path d="M1.55 8.35 L1.5 8.35 1.5 5.6 1.55 5.6 4.0 5.6 5.05 5.45 6.6 5.6 7.7 6.2 8.4 6.5 6.95 7.0 Q6.65 7.1 6.3 7.8 6.0 8.45 5.5 8.35 L3.15 8.35 1.55 8.35" fill="url(#gradient5)" fill-rule="evenodd" stroke="none"/>
    <path d="M5.0 1.0 Q3.8 1.05 2.95 1.85 2.05 2.75 2.05 4.0 L2.05 14.05 Q2.05 15.25 2.9 16.1 3.7 17.0 4.9 17.05 L4.0 17.05 Q2.55 17.05 1.85 16.15 1.0 15.25 1.0 14.2 L1.0 4.0 1.0 3.9 1.05 3.35 Q1.25 2.5 1.85 1.85 L2.95 1.15 4.0 1.0 5.0 1.0" fill="url(#gradient6)" fill-rule="evenodd" stroke="none"/>
    <path d="M16.15 1.9 Q17.0 2.75 17.0 4.0 L17.0 14.05 Q17.0 15.35 16.15 16.2 15.3 17.05 14.0 17.05 L13.1 17.05 Q14.25 17.05 15.15 16.2 16.0 15.3 16.0 14.05 L16.0 4.0 Q16.0 2.75 15.1 1.9 14.2 1.0 13.15 1.0 L14.0 1.0 Q15.25 1.0 16.15 1.9" fill="url(#gradient7)" fill-rule="evenodd" stroke="none"/>
    <path d="M10.35 10.0 L13.0 12.65 11.7 14.0 9.05 11.3 6.4 14.0 5.1 12.6 7.7 10.0 5.0 7.3 6.35 6.0 9.0 8.65 11.65 6.0 12.95 7.35 10.35 10.0" fill="#b27539" fill-rule="evenodd" stroke="none"/>
    <path d="M10.35 9.1 L13.0 11.75 11.7 13.1 9.05 10.4 6.4 13.1 5.1 11.7 7.7 9.1 5.0 6.4 6.35 5.1 9.0 7.75 11.65 5.1 12.95 6.45 10.35 9.1" fill="url(#gradient8)" fill-rule="evenodd" stroke="none"/>
  </g>
  <defs>
    <linearGradient gradientTransform="matrix(0.0, 0.0134, -0.0134, 0.0, -14.0, 11.0)" gradientUnits="userSpaceOnUse" id="gradient0" spreadMethod="pad" x1="-819.2" x2="819.2">
      <stop offset="0.0" stop-color="#4c2600"/>
      <stop offset="1.0" stop-color="#a45200"/>
    </linearGradient>
    <linearGradient gradientTransform="matrix(0.0, 0.0134, -0.0134, 0.0, 32.0, 11.0)" gradientUnits="userSpaceOnUse" id="gradient1" spreadMethod="pad" x1="-819.2" x2="819.2">
      <stop offset="0.0" stop-color="#4c2600"/>
      <stop offset="1.0" stop-color="#a45200"/>
    </linearGradient>
    <linearGradient gradientTransform="matrix(0.0, -0.0122, -0.0122, 0.0, 33.0, 11.0)" gradientUnits="userSpaceOnUse" id="gradient2" spreadMethod="pad" x1="-819.2" x2="819.2">
      <stop offset="0.0" stop-color="#b56d28"/>
      <stop offset="0.08235294117647059" stop-color="#a76525"/>
      <stop offset="1.0" stop-color="#331a00"/>
    </linearGradient>
    <linearGradient gradientTransform="matrix(0.0, -0.0122, -0.0122, 0.0, -13.0, 11.0)" gradientUnits="userSpaceOnUse" id="gradient3" spreadMethod="pad" x1="-819.2" x2="819.2">
      <stop offset="0.0" stop-color="#b56d28"/>
      <stop offset="0.08235294117647059" stop-color="#a76525"/>
      <stop offset="1.0" stop-color="#331a00"/>
    </linearGradient>
    <linearGradient gradientTransform="matrix(0.0, -0.0031, 0.0029, 0.0, 6.6, 6.9)" gradientUnits="userSpaceOnUse" id="gradient4" spreadMethod="pad" x1="-819.2" x2="819.2">
      <stop offset="0.0" stop-color="#8b5117" stop-opacity="0.6"/>
      <stop offset="1.0" stop-color="#432101" stop-opacity="0.7019608"/>
    </linearGradient>
    <linearGradient gradientTransform="matrix(0.0, 0.0018, -0.0018, 0.0, -3.3, 6.9)" gradientUnits="userSpaceOnUse" id="gradient5" spreadMethod="pad" x1="-819.2" x2="819.2">
      <stop offset="0.0" stop-color="#a45200" stop-opacity="0.5019608"/>
      <stop offset="1.0" stop-color="#6d3600" stop-opacity="0.4"/>
    </linearGradient>
    <linearGradient gradientTransform="matrix(0.0, 0.0122, -0.0125, 0.0, 33.8, 11.0)" gradientUnits="userSpaceOnUse" id="gradient6" spreadMethod="pad" x1="-819.2" x2="819.2">
      <stop offset="0.0" stop-color="#4d2600"/>
      <stop offset="1.0" stop-color="#874301"/>
    </linearGradient>
    <linearGradient gradientTransform="matrix(0.0, -0.0122, 0.0124, 0.0, -15.4, 11.0)" gradientUnits="userSpaceOnUse" id="gradient7" spreadMethod="pad" x1="-819.2" x2="819.2">
      <stop offset="0.0" stop-color="#d8a16a"/>
      <stop offset="1.0" stop-color="#4c2600"/>
    </linearGradient>
    <linearGradient gradientTransform="matrix(-1.0E-4, 0.0049, -0.0049, -1.0E-4, 9.0, 9.1)" gradientUnits="userSpaceOnUse" id="gradient8" spreadMethod="pad" x1="-819.2" x2="819.2">
      <stop offset="0.0" stop-color="#28160b"/>
      <stop offset="1.0" stop-color="#4b2706"/>
    </linearGradient>
  </defs>
</svg>
