<?xml version="1.0" encoding="UTF-8" standalone="no"?>
<svg xmlns:ffdec="https://www.free-decompiler.com/flash" xmlns:xlink="http://www.w3.org/1999/xlink" ffdec:objectType="shape" height="20.0px" width="20.0px" xmlns="http://www.w3.org/2000/svg">
  <g transform="matrix(1.0, 0.0, 0.0, 1.0, 0.0, 0.0)">
    <path d="M20.0 20.0 L0.0 20.0 0.0 0.0 20.0 0.0 20.0 20.0" fill="url(#gradient0)" fill-rule="evenodd" stroke="none"/>
    <path d="M20.0 1.0 L19.0 1.0 2.0 1.0 1.0 1.0 0.0 1.0 0.0 0.0 20.0 0.0 20.0 1.0" fill="#333300" fill-rule="evenodd" stroke="none"/>
    <path d="M19.0 1.0 L20.0 1.0 20.0 20.0 19.0 20.0 19.0 1.0 M0.0 1.0 L1.0 1.0 1.0 20.0 0.0 20.0 0.0 1.0" fill="#333300" fill-opacity="0.7019608" fill-rule="evenodd" stroke="none"/>
    <path d="M1.0 1.0 L2.0 1.0 2.0 20.0 1.0 20.0 1.0 1.0" fill="#333300" fill-opacity="0.3019608" fill-rule="evenodd" stroke="none"/>
  </g>
  <defs>
    <linearGradient gradientTransform="matrix(0.0, -0.0122, 0.0122, 0.0, 10.0, 10.0)" gradientUnits="userSpaceOnUse" id="gradient0" spreadMethod="pad" x1="-819.2" x2="819.2">
      <stop offset="0.0" stop-color="#383800" stop-opacity="0.7529412"/>
      <stop offset="0.9882352941176471" stop-color="#8f8e01"/>
    </linearGradient>
  </defs>
</svg>
