{
  "asset" : {
    "generator" : "UE Viewer (umodel) build 1590",
    "version" : "2.0"
  },
  "scene" : 0,
  "scenes" : [
    {
      "nodes" : [ 0 ]
    }
  ],
  "nodes" : [
    {
      "name" : "grip4",
      "mesh" : 0,
      "skin" : 0,
      "children" : [ 1 ]
    },
    {
      "name" : "b_body",
      "children" : [ 2, 3, 4, 5 ],
      "translation" : [ -1.11955e-08, 0, -0 ],
      "rotation" : [ 7.54979e-08, -7.54979e-08, -4.37114e-08, -1 ]
    },
    {
      "name" : "b_muzzle_flash",
      "translation" : [ 1.05125e-07, 0.0795949, -0.323346 ],
      "rotation" : [ -4.37114e-08, 4.37114e-08, -4.37114e-08, -1 ]
    },
    {
      "name" : "b_hammer",
      "translation" : [ 0.00019772, 0.0514174, 0.0772947 ],
      "rotation" : [ -4.37114e-08, 4.37114e-08, -4.37114e-08, -1 ]
    },
    {
      "name" : "b_trigger",
      "translation" : [ 7.49775e-09, 0.00349992, 0.0265152 ],
      "rotation" : [ -4.37114e-08, 4.37114e-08, -4.37114e-08, -1 ]
    },
    {
      "name" : "b_arm",
      "children" : [ 6, 7 ],
      "translation" : [ -0.00930167, 0.0190991, 0.028451 ],
      "rotation" : [ -4.37114e-08, 4.37114e-08, -4.37114e-08, -1 ]
    },
    {
      "name" : "b_pin",
      "translation" : [ 0.00949937, 0.0427179, -0.000822399 ],
      "rotation" : [ -4.37114e-08, 4.37114e-08, -4.37114e-08, -1 ]
    },
    {
      "name" : "b_cylender",
      "translation" : [ 0.00949941, 0.0416521, -0.0420974 ],
      "rotation" : [ -4.37114e-08, 4.37114e-08, 1.62921e-07, -1 ]
    }
  ],
  "skins" : [
    {
      "inverseBindMatrices" : 0,
      "skeleton" : 1,
      "joints" : [
        1,2,3,4,5,6,7
      ]
    }
  ],
  "materials" : [
    {
      "name" : "mat_revolver_pistol_INST",
      "pbrMetallicRoughness" : {
        "baseColorFactor" : [ 0.3, 0.3, 0.3, 1.0 ],
        "metallicFactor" : 0.1,
        "roughnessFactor" : 0.5
      }
    }
  ],
  "meshes" : [
    {
      "primitives" : [
        {
          "attributes" : {
            "POSITION" : 2,
            "NORMAL" : 3,
            "TANGENT" : 4,
            "JOINTS_0" : 5,
            "WEIGHTS_0" : 6,
            "TEXCOORD_0" : 7
          },
          "indices" : 1,
          "material" : 0
        }
      ],
      "name" : "grip4"
    }
  ],
  "buffers" : [
    {
      "uri" : "grip4.bin",
      "byteLength" : 18232
    }
  ],
  "bufferViews" : [
    {
      "buffer" : 0,
      "byteOffset" : 0,
      "byteLength" : 448
    },
    {
      "buffer" : 0,
      "byteOffset" : 448,
      "byteLength" : 1944
    },
    {
      "buffer" : 0,
      "byteOffset" : 2392,
      "byteLength" : 3168
    },
    {
      "buffer" : 0,
      "byteOffset" : 5560,
      "byteLength" : 3168
    },
    {
      "buffer" : 0,
      "byteOffset" : 8728,
      "byteLength" : 4224
    },
    {
      "buffer" : 0,
      "byteOffset" : 12952,
      "byteLength" : 2112
    },
    {
      "buffer" : 0,
      "byteOffset" : 15064,
      "byteLength" : 1056
    },
    {
      "buffer" : 0,
      "byteOffset" : 16120,
      "byteLength" : 2112
    }
  ],
  "accessors" : [
    {
      "bufferView" : 0,
      "componentType" : 5126,
      "count" : 7,
      "type" : "MAT4"
    },
    {
      "bufferView" : 1,
      "componentType" : 5123,
      "count" : 972,
      "type" : "SCALAR"
    },
    {
      "bufferView" : 2,
      "min" : [ -0.0318954, -0.0996095, 0.0522918 ],
      "max" : [ 0.0318954, 0.0461953, 0.18955 ],
      "componentType" : 5126,
      "count" : 264,
      "type" : "VEC3"
    },
    {
      "bufferView" : 3,
      "componentType" : 5126,
      "count" : 264,
      "type" : "VEC3"
    },
    {
      "bufferView" : 4,
      "componentType" : 5126,
      "count" : 264,
      "type" : "VEC4"
    },
    {
      "bufferView" : 5,
      "componentType" : 5123,
      "count" : 264,
      "type" : "VEC4"
    },
    {
      "bufferView" : 6,
      "normalized" : true,
      "componentType" : 5121,
      "count" : 264,
      "type" : "VEC4"
    },
    {
      "bufferView" : 7,
      "componentType" : 5126,
      "count" : 264,
      "type" : "VEC2"
    }
  ]
}
