{
  "asset" : {
    "generator" : "UE Viewer (umodel) build 1590",
    "version" : "2.0"
  },
  "scene" : 0,
  "scenes" : [
    {
      "nodes" : [ 0 ]
    }
  ],
  "nodes" : [
    {
      "name" : "grip5",
      "mesh" : 0,
      "skin" : 0,
      "children" : [ 1 ]
    },
    {
      "name" : "b_body",
      "children" : [ 2, 3, 4, 5, 6, 7 ],
      "translation" : [ 0, -3.31338e-10, 2.38419e-09 ],
      "rotation" : [ 0.5, -0.5, 0.5, 0.5 ]
    },
    {
      "name" : "b_mag",
      "translation" : [ 0.126279, 7.04916e-10, 0.103332 ],
      "rotation" : [ 4.69036e-08, -0.21644, 2.40163e-09, -0.976296 ]
    },
    {
      "name" : "b_action",
      "translation" : [ 0.0533574, -4.94701e-09, -0.05495 ],
      "rotation" : [ -0, -0, 2.38228e-22, -1 ]
    },
    {
      "name" : "b_trigger",
      "translation" : [ 0.0183272, -3.64892e-09, -0.0191211 ],
      "rotation" : [ 1.84e-08, 0.751732, -6.00118e-08, -0.659469 ]
    },
    {
      "name" : "b_muzzle_flash_1",
      "translation" : [ -0.217909, 1.65426e-08, -0.0556401 ],
      "rotation" : [ -0, -0, 2.38228e-22, -1 ]
    },
    {
      "name" : "b_muzzle_flash_2",
      "translation" : [ -0.237819, 1.56723e-08, -0.0556401 ],
      "rotation" : [ -0, -0, 2.38228e-22, -1 ]
    },
    {
      "name" : "b_muzzle_flash_3",
      "translation" : [ -0.268105, 1.91169e-08, -0.0556401 ],
      "rotation" : [ -0, -0, 2.38228e-22, -1 ]
    }
  ],
  "skins" : [
    {
      "inverseBindMatrices" : 0,
      "skeleton" : 1,
      "joints" : [
        1,2,3,4,5,6,7
      ]
    }
  ],
  "materials" : [
    {
      "name" : "mat_repeater_pistol_INST",
      "pbrMetallicRoughness" : {
        "baseColorFactor" : [ 0.3, 0.3, 0.3, 1.0 ],
        "metallicFactor" : 0.1,
        "roughnessFactor" : 0.5
      }
    }
  ],
  "meshes" : [
    {
      "primitives" : [
        {
          "attributes" : {
            "POSITION" : 2,
            "NORMAL" : 3,
            "TANGENT" : 4,
            "JOINTS_0" : 5,
            "WEIGHTS_0" : 6,
            "TEXCOORD_0" : 7
          },
          "indices" : 1,
          "material" : 0
        }
      ],
      "name" : "grip5"
    }
  ],
  "buffers" : [
    {
      "uri" : "grip5.bin",
      "byteLength" : 15952
    }
  ],
  "bufferViews" : [
    {
      "buffer" : 0,
      "byteOffset" : 0,
      "byteLength" : 448
    },
    {
      "buffer" : 0,
      "byteOffset" : 448,
      "byteLength" : 1464
    },
    {
      "buffer" : 0,
      "byteOffset" : 1912,
      "byteLength" : 2808
    },
    {
      "buffer" : 0,
      "byteOffset" : 4720,
      "byteLength" : 2808
    },
    {
      "buffer" : 0,
      "byteOffset" : 7528,
      "byteLength" : 3744
    },
    {
      "buffer" : 0,
      "byteOffset" : 11272,
      "byteLength" : 1872
    },
    {
      "buffer" : 0,
      "byteOffset" : 13144,
      "byteLength" : 936
    },
    {
      "buffer" : 0,
      "byteOffset" : 14080,
      "byteLength" : 1872
    }
  ],
  "accessors" : [
    {
      "bufferView" : 0,
      "componentType" : 5126,
      "count" : 7,
      "type" : "MAT4"
    },
    {
      "bufferView" : 1,
      "componentType" : 5123,
      "count" : 732,
      "type" : "SCALAR"
    },
    {
      "bufferView" : 2,
      "min" : [ -0.0185815, -0.156978, 0.0482706 ],
      "max" : [ 0.0185815, 0.0317348, 0.183645 ],
      "componentType" : 5126,
      "count" : 234,
      "type" : "VEC3"
    },
    {
      "bufferView" : 3,
      "componentType" : 5126,
      "count" : 234,
      "type" : "VEC3"
    },
    {
      "bufferView" : 4,
      "componentType" : 5126,
      "count" : 234,
      "type" : "VEC4"
    },
    {
      "bufferView" : 5,
      "componentType" : 5123,
      "count" : 234,
      "type" : "VEC4"
    },
    {
      "bufferView" : 6,
      "normalized" : true,
      "componentType" : 5121,
      "count" : 234,
      "type" : "VEC4"
    },
    {
      "bufferView" : 7,
      "componentType" : 5126,
      "count" : 234,
      "type" : "VEC2"
    }
  ]
}
