{
  "asset" : {
    "generator" : "UE Viewer (umodel) build 1590",
    "version" : "2.0"
  },
  "scene" : 0,
  "scenes" : [
    {
      "nodes" : [ 0 ]
    }
  ],
  "nodes" : [
    {
      "name" : "stock2",
      "mesh" : 0,
      "skin" : 0,
      "children" : [ 1 ]
    },
    {
      "name" : "b_body",
      "children" : [ 2, 10, 11, 12, 13, 14 ],
      "translation" : [ 0, 0, -0 ],
      "rotation" : [ -0, -0, 0, -1 ]
    },
    {
      "name" : "b_cyl_rotate",
      "children" : [ 3 ],
      "translation" : [ 1.01953e-08, 0.0671616, -0.147725 ],
      "rotation" : [ -0, -0, 0, -1 ]
    },
    {
      "name" : "b_cyl",
      "children" : [ 4, 5, 6, 7, 8, 9 ],
      "translation" : [ -1.49637e-08, 0.00333988, 0.0970293 ],
      "rotation" : [ -0, -0, 0, -1 ]
    },
    {
      "name" : "b_shell6",
      "translation" : [ -0.0170282, 0.00983123, 0.0544322 ],
      "rotation" : [ -0, -0, -1.50996e-07, -1 ]
    },
    {
      "name" : "b_shell3",
      "translation" : [ 0.0170282, -0.00983124, 0.0544322 ],
      "rotation" : [ -0, -0, 0, -1 ]
    },
    {
      "name" : "b_shell4",
      "translation" : [ -8.27927e-09, -0.0196625, 0.0544322 ],
      "rotation" : [ -0, -0, -1.50996e-07, -1 ]
    },
    {
      "name" : "b_shell5",
      "translation" : [ -0.0170282, -0.00983122, 0.0544322 ],
      "rotation" : [ -0, -0, -1.50996e-07, -1 ]
    },
    {
      "name" : "b_shell1",
      "translation" : [ 9.60213e-09, 0.0196624, 0.0544322 ],
      "rotation" : [ -0, -0, 8.74228e-08, -1 ]
    },
    {
      "name" : "b_shell2",
      "translation" : [ 0.0170282, 0.00983119, 0.0544322 ],
      "rotation" : [ -0, -0, 0, -1 ]
    },
    {
      "name" : "b_trigger",
      "translation" : [ -6.87442e-10, 0.00753394, 0.0157269 ],
      "rotation" : [ -0, -0, 0, -1 ]
    },
    {
      "name" : "b_pump",
      "translation" : [ 0, 0.0294826, -0.374577 ],
      "rotation" : [ -0, -0, 0, -1 ]
    },
    {
      "name" : "b_mag",
      "translation" : [ 5.46136e-09, -0.0226512, -0.124941 ],
      "rotation" : [ -0.130526, -0, 0, -0.991445 ]
    },
    {
      "name" : "b_slide",
      "translation" : [ -0.0528908, 0.060349, -0.152784 ],
      "rotation" : [ -0, -0, 0, -1 ]
    },
    {
      "name" : "b_loader",
      "translation" : [ -3.73588e-09, 0.0705015, 0.0196529 ],
      "rotation" : [ -0, -0, 0, -1 ]
    }
  ],
  "skins" : [
    {
      "inverseBindMatrices" : 0,
      "skeleton" : 1,
      "joints" : [
        1,2,3,4,5,6,7,8,9,10,11,12,13,14
      ]
    }
  ],
  "materials" : [
    {
      "name" : "mat_sniper_rifle_INST",
      "pbrMetallicRoughness" : {
        "baseColorFactor" : [ 0.3, 0.3, 0.3, 1.0 ],
        "metallicFactor" : 0.1,
        "roughnessFactor" : 0.5
      }
    }
  ],
  "meshes" : [
    {
      "primitives" : [
        {
          "attributes" : {
            "POSITION" : 2,
            "NORMAL" : 3,
            "TANGENT" : 4,
            "JOINTS_0" : 5,
            "WEIGHTS_0" : 6,
            "TEXCOORD_0" : 7
          },
          "indices" : 1,
          "material" : 0
        }
      ],
      "name" : "stock2"
    }
  ],
  "buffers" : [
    {
      "uri" : "stock2.bin",
      "byteLength" : 23408
    }
  ],
  "bufferViews" : [
    {
      "buffer" : 0,
      "byteOffset" : 0,
      "byteLength" : 896
    },
    {
      "buffer" : 0,
      "byteOffset" : 896,
      "byteLength" : 1752
    },
    {
      "buffer" : 0,
      "byteOffset" : 2648,
      "byteLength" : 4152
    },
    {
      "buffer" : 0,
      "byteOffset" : 6800,
      "byteLength" : 4152
    },
    {
      "buffer" : 0,
      "byteOffset" : 10952,
      "byteLength" : 5536
    },
    {
      "buffer" : 0,
      "byteOffset" : 16488,
      "byteLength" : 2768
    },
    {
      "buffer" : 0,
      "byteOffset" : 19256,
      "byteLength" : 1384
    },
    {
      "buffer" : 0,
      "byteOffset" : 20640,
      "byteLength" : 2768
    }
  ],
  "accessors" : [
    {
      "bufferView" : 0,
      "componentType" : 5126,
      "count" : 14,
      "type" : "MAT4"
    },
    {
      "bufferView" : 1,
      "componentType" : 5123,
      "count" : 876,
      "type" : "SCALAR"
    },
    {
      "bufferView" : 2,
      "min" : [ -0.0277038, -0.0754426, 0.097241 ],
      "max" : [ 0.0277038, 0.101994, 0.43284 ],
      "componentType" : 5126,
      "count" : 346,
      "type" : "VEC3"
    },
    {
      "bufferView" : 3,
      "componentType" : 5126,
      "count" : 346,
      "type" : "VEC3"
    },
    {
      "bufferView" : 4,
      "componentType" : 5126,
      "count" : 346,
      "type" : "VEC4"
    },
    {
      "bufferView" : 5,
      "componentType" : 5123,
      "count" : 346,
      "type" : "VEC4"
    },
    {
      "bufferView" : 6,
      "normalized" : true,
      "componentType" : 5121,
      "count" : 346,
      "type" : "VEC4"
    },
    {
      "bufferView" : 7,
      "componentType" : 5126,
      "count" : 346,
      "type" : "VEC2"
    }
  ]
}
