{
  "asset" : {
    "generator" : "UE Viewer (umodel) build 1590",
    "version" : "2.0"
  },
  "scene" : 0,
  "scenes" : [
    {
      "nodes" : [ 0 ]
    }
  ],
  "nodes" : [
    {
      "name" : "acc3",
      "mesh" : 0,
      "skin" : 0,
      "children" : [ 1 ]
    },
    {
      "name" : "b_body",
      "translation" : [ 0, 0, -0 ],
      "rotation" : [ -0, -0, 0, -1 ]
    }
  ],
  "skins" : [
    {
      "inverseBindMatrices" : 0,
      "skeleton" : 1,
      "joints" : [
        1
      ]
    }
  ],
  "materials" : [
    {
      "name" : "mat_alien_rifle_INST",
      "pbrMetallicRoughness" : {
        "baseColorFactor" : [ 0.3, 0.3, 0.3, 1.0 ],
        "metallicFactor" : 0.1,
        "roughnessFactor" : 0.5
      }
    }
  ],
  "meshes" : [
    {
      "primitives" : [
        {
          "attributes" : {
            "POSITION" : 2,
            "NORMAL" : 3,
            "TANGENT" : 4,
            "JOINTS_0" : 5,
            "WEIGHTS_0" : 6,
            "TEXCOORD_0" : 7
          },
          "indices" : 1,
          "material" : 0
        }
      ],
      "name" : "acc3"
    }
  ],
  "buffers" : [
    {
      "uri" : "acc3.bin",
      "byteLength" : 37708
    }
  ],
  "bufferViews" : [
    {
      "buffer" : 0,
      "byteOffset" : 0,
      "byteLength" : 64
    },
    {
      "buffer" : 0,
      "byteOffset" : 64,
      "byteLength" : 4884
    },
    {
      "buffer" : 0,
      "byteOffset" : 4948,
      "byteLength" : 6552
    },
    {
      "buffer" : 0,
      "byteOffset" : 11500,
      "byteLength" : 6552
    },
    {
      "buffer" : 0,
      "byteOffset" : 18052,
      "byteLength" : 8736
    },
    {
      "buffer" : 0,
      "byteOffset" : 26788,
      "byteLength" : 4368
    },
    {
      "buffer" : 0,
      "byteOffset" : 31156,
      "byteLength" : 2184
    },
    {
      "buffer" : 0,
      "byteOffset" : 33340,
      "byteLength" : 4368
    }
  ],
  "accessors" : [
    {
      "bufferView" : 0,
      "componentType" : 5126,
      "count" : 1,
      "type" : "MAT4"
    },
    {
      "bufferView" : 1,
      "componentType" : 5123,
      "count" : 2442,
      "type" : "SCALAR"
    },
    {
      "bufferView" : 2,
      "min" : [ -0.0400687, -0.0677974, -0.167733 ],
      "max" : [ 0.0400684, 0.0349681, 0.0113727 ],
      "componentType" : 5126,
      "count" : 546,
      "type" : "VEC3"
    },
    {
      "bufferView" : 3,
      "componentType" : 5126,
      "count" : 546,
      "type" : "VEC3"
    },
    {
      "bufferView" : 4,
      "componentType" : 5126,
      "count" : 546,
      "type" : "VEC4"
    },
    {
      "bufferView" : 5,
      "componentType" : 5123,
      "count" : 546,
      "type" : "VEC4"
    },
    {
      "bufferView" : 6,
      "normalized" : true,
      "componentType" : 5121,
      "count" : 546,
      "type" : "VEC4"
    },
    {
      "bufferView" : 7,
      "componentType" : 5126,
      "count" : 546,
      "type" : "VEC2"
    }
  ]
}
