{
  "asset" : {
    "generator" : "UE Viewer (umodel) build 1590",
    "version" : "2.0"
  },
  "scene" : 0,
  "scenes" : [
    {
      "nodes" : [ 0 ]
    }
  ],
  "nodes" : [
    {
      "name" : "barrel6",
      "mesh" : 0,
      "skin" : 0,
      "children" : [ 1 ]
    },
    {
      "name" : "b_body",
      "translation" : [ 0, 0, -0 ],
      "rotation" : [ -0, -0, 0, -1 ]
    }
  ],
  "skins" : [
    {
      "inverseBindMatrices" : 0,
      "skeleton" : 1,
      "joints" : [
        1
      ]
    }
  ],
  "materials" : [
    {
      "name" : "mat_alien_rifle_INST",
      "pbrMetallicRoughness" : {
        "baseColorFactor" : [ 0.3, 0.3, 0.3, 1.0 ],
        "metallicFactor" : 0.1,
        "roughnessFactor" : 0.5
      }
    }
  ],
  "meshes" : [
    {
      "primitives" : [
        {
          "attributes" : {
            "POSITION" : 2,
            "NORMAL" : 3,
            "TANGENT" : 4,
            "JOINTS_0" : 5,
            "WEIGHTS_0" : 6,
            "TEXCOORD_0" : 7
          },
          "indices" : 1,
          "material" : 0
        }
      ],
      "name" : "barrel6"
    }
  ],
  "buffers" : [
    {
      "uri" : "barrel6.bin",
      "byteLength" : 48736
    }
  ],
  "bufferViews" : [
    {
      "buffer" : 0,
      "byteOffset" : 0,
      "byteLength" : 64
    },
    {
      "buffer" : 0,
      "byteOffset" : 64,
      "byteLength" : 4932
    },
    {
      "buffer" : 0,
      "byteOffset" : 4996,
      "byteLength" : 8748
    },
    {
      "buffer" : 0,
      "byteOffset" : 13744,
      "byteLength" : 8748
    },
    {
      "buffer" : 0,
      "byteOffset" : 22492,
      "byteLength" : 11664
    },
    {
      "buffer" : 0,
      "byteOffset" : 34156,
      "byteLength" : 5832
    },
    {
      "buffer" : 0,
      "byteOffset" : 39988,
      "byteLength" : 2916
    },
    {
      "buffer" : 0,
      "byteOffset" : 42904,
      "byteLength" : 5832
    }
  ],
  "accessors" : [
    {
      "bufferView" : 0,
      "componentType" : 5126,
      "count" : 1,
      "type" : "MAT4"
    },
    {
      "bufferView" : 1,
      "componentType" : 5123,
      "count" : 2466,
      "type" : "SCALAR"
    },
    {
      "bufferView" : 2,
      "min" : [ -0.0201459, -0.180616, -0.620843 ],
      "max" : [ 0.0201459, 0.0883708, -0.192894 ],
      "componentType" : 5126,
      "count" : 729,
      "type" : "VEC3"
    },
    {
      "bufferView" : 3,
      "componentType" : 5126,
      "count" : 729,
      "type" : "VEC3"
    },
    {
      "bufferView" : 4,
      "componentType" : 5126,
      "count" : 729,
      "type" : "VEC4"
    },
    {
      "bufferView" : 5,
      "componentType" : 5123,
      "count" : 729,
      "type" : "VEC4"
    },
    {
      "bufferView" : 6,
      "normalized" : true,
      "componentType" : 5121,
      "count" : 729,
      "type" : "VEC4"
    },
    {
      "bufferView" : 7,
      "componentType" : 5126,
      "count" : 729,
      "type" : "VEC2"
    }
  ]
}
