{
  "asset" : {
    "generator" : "UE Viewer (umodel) build 1590",
    "version" : "2.0"
  },
  "scene" : 0,
  "scenes" : [
    {
      "nodes" : [ 0 ]
    }
  ],
  "nodes" : [
    {
      "name" : "barrel3",
      "mesh" : 0,
      "skin" : 0,
      "children" : [ 1 ]
    },
    {
      "name" : "b_body",
      "translation" : [ 0, 0, -0 ],
      "rotation" : [ -0, -0, 0, -1 ]
    }
  ],
  "skins" : [
    {
      "inverseBindMatrices" : 0,
      "skeleton" : 1,
      "joints" : [
        1
      ]
    }
  ],
  "materials" : [
    {
      "name" : "mat_alien_rifle_INST",
      "pbrMetallicRoughness" : {
        "baseColorFactor" : [ 0.3, 0.3, 0.3, 1.0 ],
        "metallicFactor" : 0.1,
        "roughnessFactor" : 0.5
      }
    }
  ],
  "meshes" : [
    {
      "primitives" : [
        {
          "attributes" : {
            "POSITION" : 2,
            "NORMAL" : 3,
            "TANGENT" : 4,
            "JOINTS_0" : 5,
            "WEIGHTS_0" : 6,
            "TEXCOORD_0" : 7
          },
          "indices" : 1,
          "material" : 0
        }
      ],
      "name" : "barrel3"
    }
  ],
  "buffers" : [
    {
      "uri" : "barrel3.bin",
      "byteLength" : 77488
    }
  ],
  "bufferViews" : [
    {
      "buffer" : 0,
      "byteOffset" : 0,
      "byteLength" : 64
    },
    {
      "buffer" : 0,
      "byteOffset" : 64,
      "byteLength" : 8544
    },
    {
      "buffer" : 0,
      "byteOffset" : 8608,
      "byteLength" : 13776
    },
    {
      "buffer" : 0,
      "byteOffset" : 22384,
      "byteLength" : 13776
    },
    {
      "buffer" : 0,
      "byteOffset" : 36160,
      "byteLength" : 18368
    },
    {
      "buffer" : 0,
      "byteOffset" : 54528,
      "byteLength" : 9184
    },
    {
      "buffer" : 0,
      "byteOffset" : 63712,
      "byteLength" : 4592
    },
    {
      "buffer" : 0,
      "byteOffset" : 68304,
      "byteLength" : 9184
    }
  ],
  "accessors" : [
    {
      "bufferView" : 0,
      "componentType" : 5126,
      "count" : 1,
      "type" : "MAT4"
    },
    {
      "bufferView" : 1,
      "componentType" : 5123,
      "count" : 4272,
      "type" : "SCALAR"
    },
    {
      "bufferView" : 2,
      "min" : [ -0.0491787, -0.0296878, -1.02173 ],
      "max" : [ 0.0491798, 0.0855932, -0.19718 ],
      "componentType" : 5126,
      "count" : 1148,
      "type" : "VEC3"
    },
    {
      "bufferView" : 3,
      "componentType" : 5126,
      "count" : 1148,
      "type" : "VEC3"
    },
    {
      "bufferView" : 4,
      "componentType" : 5126,
      "count" : 1148,
      "type" : "VEC4"
    },
    {
      "bufferView" : 5,
      "componentType" : 5123,
      "count" : 1148,
      "type" : "VEC4"
    },
    {
      "bufferView" : 6,
      "normalized" : true,
      "componentType" : 5121,
      "count" : 1148,
      "type" : "VEC4"
    },
    {
      "bufferView" : 7,
      "componentType" : 5126,
      "count" : 1148,
      "type" : "VEC2"
    }
  ]
}
