{
  "asset" : {
    "generator" : "UE Viewer (umodel) build 1590",
    "version" : "2.0"
  },
  "scene" : 0,
  "scenes" : [
    {
      "nodes" : [ 0 ]
    }
  ],
  "nodes" : [
    {
      "name" : "body4",
      "mesh" : 0,
      "skin" : 0,
      "children" : [ 1 ]
    },
    {
      "name" : "b_body",
      "translation" : [ 0, 0, -0 ],
      "rotation" : [ -0, -0, 0, -1 ]
    }
  ],
  "skins" : [
    {
      "inverseBindMatrices" : 0,
      "skeleton" : 1,
      "joints" : [
        1
      ]
    }
  ],
  "materials" : [
    {
      "name" : "mat_alien_rifle_INST",
      "pbrMetallicRoughness" : {
        "baseColorFactor" : [ 0.3, 0.3, 0.3, 1.0 ],
        "metallicFactor" : 0.1,
        "roughnessFactor" : 0.5
      }
    }
  ],
  "meshes" : [
    {
      "primitives" : [
        {
          "attributes" : {
            "POSITION" : 2,
            "NORMAL" : 3,
            "TANGENT" : 4,
            "JOINTS_0" : 5,
            "WEIGHTS_0" : 6,
            "TEXCOORD_0" : 7
          },
          "indices" : 1,
          "material" : 0
        }
      ],
      "name" : "body4"
    }
  ],
  "buffers" : [
    {
      "uri" : "body4.bin",
      "byteLength" : 35752
    }
  ],
  "bufferViews" : [
    {
      "buffer" : 0,
      "byteOffset" : 0,
      "byteLength" : 64
    },
    {
      "buffer" : 0,
      "byteOffset" : 64,
      "byteLength" : 3408
    },
    {
      "buffer" : 0,
      "byteOffset" : 3472,
      "byteLength" : 6456
    },
    {
      "buffer" : 0,
      "byteOffset" : 9928,
      "byteLength" : 6456
    },
    {
      "buffer" : 0,
      "byteOffset" : 16384,
      "byteLength" : 8608
    },
    {
      "buffer" : 0,
      "byteOffset" : 24992,
      "byteLength" : 4304
    },
    {
      "buffer" : 0,
      "byteOffset" : 29296,
      "byteLength" : 2152
    },
    {
      "buffer" : 0,
      "byteOffset" : 31448,
      "byteLength" : 4304
    }
  ],
  "accessors" : [
    {
      "bufferView" : 0,
      "componentType" : 5126,
      "count" : 1,
      "type" : "MAT4"
    },
    {
      "bufferView" : 1,
      "componentType" : 5123,
      "count" : 1704,
      "type" : "SCALAR"
    },
    {
      "bufferView" : 2,
      "min" : [ -0.0214272, 0.0139129, -0.197857 ],
      "max" : [ 0.0214272, 0.0827902, 0.0470926 ],
      "componentType" : 5126,
      "count" : 538,
      "type" : "VEC3"
    },
    {
      "bufferView" : 3,
      "componentType" : 5126,
      "count" : 538,
      "type" : "VEC3"
    },
    {
      "bufferView" : 4,
      "componentType" : 5126,
      "count" : 538,
      "type" : "VEC4"
    },
    {
      "bufferView" : 5,
      "componentType" : 5123,
      "count" : 538,
      "type" : "VEC4"
    },
    {
      "bufferView" : 6,
      "normalized" : true,
      "componentType" : 5121,
      "count" : 538,
      "type" : "VEC4"
    },
    {
      "bufferView" : 7,
      "componentType" : 5126,
      "count" : 538,
      "type" : "VEC2"
    }
  ]
}
