{
  "asset" : {
    "generator" : "UE Viewer (umodel) build 1590",
    "version" : "2.0"
  },
  "scene" : 0,
  "scenes" : [
    {
      "nodes" : [ 0 ]
    }
  ],
  "nodes" : [
    {
      "name" : "grip3",
      "mesh" : 0,
      "skin" : 0,
      "children" : [ 1 ]
    },
    {
      "name" : "b_body",
      "translation" : [ 0, 0, -0 ],
      "rotation" : [ -0, -0, 0, -1 ]
    }
  ],
  "skins" : [
    {
      "inverseBindMatrices" : 0,
      "skeleton" : 1,
      "joints" : [
        1
      ]
    }
  ],
  "materials" : [
    {
      "name" : "mat_alien_rifle_INST",
      "pbrMetallicRoughness" : {
        "baseColorFactor" : [ 0.3, 0.3, 0.3, 1.0 ],
        "metallicFactor" : 0.1,
        "roughnessFactor" : 0.5
      }
    }
  ],
  "meshes" : [
    {
      "primitives" : [
        {
          "attributes" : {
            "POSITION" : 2,
            "NORMAL" : 3,
            "TANGENT" : 4,
            "JOINTS_0" : 5,
            "WEIGHTS_0" : 6,
            "TEXCOORD_0" : 7
          },
          "indices" : 1,
          "material" : 0
        }
      ],
      "name" : "grip3"
    }
  ],
  "buffers" : [
    {
      "uri" : "grip3.bin",
      "byteLength" : 17512
    }
  ],
  "bufferViews" : [
    {
      "buffer" : 0,
      "byteOffset" : 0,
      "byteLength" : 64
    },
    {
      "buffer" : 0,
      "byteOffset" : 64,
      "byteLength" : 2088
    },
    {
      "buffer" : 0,
      "byteOffset" : 2152,
      "byteLength" : 3072
    },
    {
      "buffer" : 0,
      "byteOffset" : 5224,
      "byteLength" : 3072
    },
    {
      "buffer" : 0,
      "byteOffset" : 8296,
      "byteLength" : 4096
    },
    {
      "buffer" : 0,
      "byteOffset" : 12392,
      "byteLength" : 2048
    },
    {
      "buffer" : 0,
      "byteOffset" : 14440,
      "byteLength" : 1024
    },
    {
      "buffer" : 0,
      "byteOffset" : 15464,
      "byteLength" : 2048
    }
  ],
  "accessors" : [
    {
      "bufferView" : 0,
      "componentType" : 5126,
      "count" : 1,
      "type" : "MAT4"
    },
    {
      "bufferView" : 1,
      "componentType" : 5123,
      "count" : 1044,
      "type" : "SCALAR"
    },
    {
      "bufferView" : 2,
      "min" : [ -0.0165819, -0.12341, -0.00447553 ],
      "max" : [ 0.0165819, 0.0595152, 0.226503 ],
      "componentType" : 5126,
      "count" : 256,
      "type" : "VEC3"
    },
    {
      "bufferView" : 3,
      "componentType" : 5126,
      "count" : 256,
      "type" : "VEC3"
    },
    {
      "bufferView" : 4,
      "componentType" : 5126,
      "count" : 256,
      "type" : "VEC4"
    },
    {
      "bufferView" : 5,
      "componentType" : 5123,
      "count" : 256,
      "type" : "VEC4"
    },
    {
      "bufferView" : 6,
      "normalized" : true,
      "componentType" : 5121,
      "count" : 256,
      "type" : "VEC4"
    },
    {
      "bufferView" : 7,
      "componentType" : 5126,
      "count" : 256,
      "type" : "VEC2"
    }
  ]
}
