{
  "asset" : {
    "generator" : "UE Viewer (umodel) build 1590",
    "version" : "2.0"
  },
  "scene" : 0,
  "scenes" : [
    {
      "nodes" : [ 0 ]
    }
  ],
  "nodes" : [
    {
      "name" : "grip1",
      "mesh" : 0,
      "skin" : 0,
      "children" : [ 1 ]
    },
    {
      "name" : "b_body",
      "translation" : [ 0, 0, -0 ],
      "rotation" : [ -0, -0, 0, -1 ]
    }
  ],
  "skins" : [
    {
      "inverseBindMatrices" : 0,
      "skeleton" : 1,
      "joints" : [
        1
      ]
    }
  ],
  "materials" : [
    {
      "name" : "mat_alien_rifle_INST",
      "pbrMetallicRoughness" : {
        "baseColorFactor" : [ 0.3, 0.3, 0.3, 1.0 ],
        "metallicFactor" : 0.1,
        "roughnessFactor" : 0.5
      }
    }
  ],
  "meshes" : [
    {
      "primitives" : [
        {
          "attributes" : {
            "POSITION" : 2,
            "NORMAL" : 3,
            "TANGENT" : 4,
            "JOINTS_0" : 5,
            "WEIGHTS_0" : 6,
            "TEXCOORD_0" : 7
          },
          "indices" : 1,
          "material" : 0
        }
      ],
      "name" : "grip1"
    }
  ],
  "buffers" : [
    {
      "uri" : "grip1.bin",
      "byteLength" : 34128
    }
  ],
  "bufferViews" : [
    {
      "buffer" : 0,
      "byteOffset" : 0,
      "byteLength" : 64
    },
    {
      "buffer" : 0,
      "byteOffset" : 64,
      "byteLength" : 3884
    },
    {
      "buffer" : 0,
      "byteOffset" : 3948,
      "byteLength" : 6036
    },
    {
      "buffer" : 0,
      "byteOffset" : 9984,
      "byteLength" : 6036
    },
    {
      "buffer" : 0,
      "byteOffset" : 16020,
      "byteLength" : 8048
    },
    {
      "buffer" : 0,
      "byteOffset" : 24068,
      "byteLength" : 4024
    },
    {
      "buffer" : 0,
      "byteOffset" : 28092,
      "byteLength" : 2012
    },
    {
      "buffer" : 0,
      "byteOffset" : 30104,
      "byteLength" : 4024
    }
  ],
  "accessors" : [
    {
      "bufferView" : 0,
      "componentType" : 5126,
      "count" : 1,
      "type" : "MAT4"
    },
    {
      "bufferView" : 1,
      "componentType" : 5123,
      "count" : 1941,
      "type" : "SCALAR"
    },
    {
      "bufferView" : 2,
      "min" : [ -0.0204448, -0.0762094, 0.00315745 ],
      "max" : [ 0.0203919, 0.0650046, 0.178029 ],
      "componentType" : 5126,
      "count" : 503,
      "type" : "VEC3"
    },
    {
      "bufferView" : 3,
      "componentType" : 5126,
      "count" : 503,
      "type" : "VEC3"
    },
    {
      "bufferView" : 4,
      "componentType" : 5126,
      "count" : 503,
      "type" : "VEC4"
    },
    {
      "bufferView" : 5,
      "componentType" : 5123,
      "count" : 503,
      "type" : "VEC4"
    },
    {
      "bufferView" : 6,
      "normalized" : true,
      "componentType" : 5121,
      "count" : 503,
      "type" : "VEC4"
    },
    {
      "bufferView" : 7,
      "componentType" : 5126,
      "count" : 503,
      "type" : "VEC2"
    }
  ]
}
