{
  "asset" : {
    "generator" : "UE Viewer (umodel) build 1590",
    "version" : "2.0"
  },
  "scene" : 0,
  "scenes" : [
    {
      "nodes" : [ 0 ]
    }
  ],
  "nodes" : [
    {
      "name" : "grip6",
      "mesh" : 0,
      "skin" : 0,
      "children" : [ 1 ]
    },
    {
      "name" : "b_body",
      "translation" : [ 0, 0, -0 ],
      "rotation" : [ -0, -0, 0, -1 ]
    }
  ],
  "skins" : [
    {
      "inverseBindMatrices" : 0,
      "skeleton" : 1,
      "joints" : [
        1
      ]
    }
  ],
  "materials" : [
    {
      "name" : "mat_alien_rifle_INST",
      "pbrMetallicRoughness" : {
        "baseColorFactor" : [ 0.3, 0.3, 0.3, 1.0 ],
        "metallicFactor" : 0.1,
        "roughnessFactor" : 0.5
      }
    }
  ],
  "meshes" : [
    {
      "primitives" : [
        {
          "attributes" : {
            "POSITION" : 2,
            "NORMAL" : 3,
            "TANGENT" : 4,
            "JOINTS_0" : 5,
            "WEIGHTS_0" : 6,
            "TEXCOORD_0" : 7
          },
          "indices" : 1,
          "material" : 0
        }
      ],
      "name" : "grip6"
    }
  ],
  "buffers" : [
    {
      "uri" : "grip6.bin",
      "byteLength" : 34624
    }
  ],
  "bufferViews" : [
    {
      "buffer" : 0,
      "byteOffset" : 0,
      "byteLength" : 64
    },
    {
      "buffer" : 0,
      "byteOffset" : 64,
      "byteLength" : 3900
    },
    {
      "buffer" : 0,
      "byteOffset" : 3964,
      "byteLength" : 6132
    },
    {
      "buffer" : 0,
      "byteOffset" : 10096,
      "byteLength" : 6132
    },
    {
      "buffer" : 0,
      "byteOffset" : 16228,
      "byteLength" : 8176
    },
    {
      "buffer" : 0,
      "byteOffset" : 24404,
      "byteLength" : 4088
    },
    {
      "buffer" : 0,
      "byteOffset" : 28492,
      "byteLength" : 2044
    },
    {
      "buffer" : 0,
      "byteOffset" : 30536,
      "byteLength" : 4088
    }
  ],
  "accessors" : [
    {
      "bufferView" : 0,
      "componentType" : 5126,
      "count" : 1,
      "type" : "MAT4"
    },
    {
      "bufferView" : 1,
      "componentType" : 5123,
      "count" : 1950,
      "type" : "SCALAR"
    },
    {
      "bufferView" : 2,
      "min" : [ -0.0153678, -0.155979, -0.00620162 ],
      "max" : [ 0.0153678, 0.0622179, 0.177964 ],
      "componentType" : 5126,
      "count" : 511,
      "type" : "VEC3"
    },
    {
      "bufferView" : 3,
      "componentType" : 5126,
      "count" : 511,
      "type" : "VEC3"
    },
    {
      "bufferView" : 4,
      "componentType" : 5126,
      "count" : 511,
      "type" : "VEC4"
    },
    {
      "bufferView" : 5,
      "componentType" : 5123,
      "count" : 511,
      "type" : "VEC4"
    },
    {
      "bufferView" : 6,
      "normalized" : true,
      "componentType" : 5121,
      "count" : 511,
      "type" : "VEC4"
    },
    {
      "bufferView" : 7,
      "componentType" : 5126,
      "count" : 511,
      "type" : "VEC2"
    }
  ]
}
