{
  "asset" : {
    "generator" : "UE Viewer (umodel) build 1590",
    "version" : "2.0"
  },
  "scene" : 0,
  "scenes" : [
    {
      "nodes" : [ 0 ]
    }
  ],
  "nodes" : [
    {
      "name" : "mag1",
      "mesh" : 0,
      "skin" : 0,
      "children" : [ 1 ]
    },
    {
      "name" : "b_body",
      "translation" : [ 0, 0, -0 ],
      "rotation" : [ -0, -0, 0, -1 ]
    }
  ],
  "skins" : [
    {
      "inverseBindMatrices" : 0,
      "skeleton" : 1,
      "joints" : [
        1
      ]
    }
  ],
  "materials" : [
    {
      "name" : "mat_alien_rifle_mag",
      "pbrMetallicRoughness" : {
        "baseColorFactor" : [ 0.3, 0.3, 0.3, 1.0 ],
        "metallicFactor" : 0.1,
        "roughnessFactor" : 0.5
      }
    },
    {
      "name" : "mat_alien_ammo_INST",
      "pbrMetallicRoughness" : {
        "baseColorFactor" : [ 0.9, 0.3, 0.3, 1.0 ],
        "metallicFactor" : 0.1,
        "roughnessFactor" : 0.5
      }
    }
  ],
  "meshes" : [
    {
      "primitives" : [
        {
          "attributes" : {
            "POSITION" : 2,
            "NORMAL" : 3,
            "TANGENT" : 4,
            "JOINTS_0" : 5,
            "WEIGHTS_0" : 6,
            "TEXCOORD_0" : 7
          },
          "indices" : 1,
          "material" : 0
        },
        {
          "attributes" : {
            "POSITION" : 9,
            "NORMAL" : 10,
            "TANGENT" : 11,
            "JOINTS_0" : 12,
            "WEIGHTS_0" : 13,
            "TEXCOORD_0" : 14
          },
          "indices" : 8,
          "material" : 1
        }
      ],
      "name" : "mag1"
    }
  ],
  "buffers" : [
    {
      "uri" : "mag1.bin",
      "byteLength" : 35920
    }
  ],
  "bufferViews" : [
    {
      "buffer" : 0,
      "byteOffset" : 0,
      "byteLength" : 64
    },
    {
      "buffer" : 0,
      "byteOffset" : 64,
      "byteLength" : 2784
    },
    {
      "buffer" : 0,
      "byteOffset" : 2848,
      "byteLength" : 3492
    },
    {
      "buffer" : 0,
      "byteOffset" : 6340,
      "byteLength" : 3492
    },
    {
      "buffer" : 0,
      "byteOffset" : 9832,
      "byteLength" : 4656
    },
    {
      "buffer" : 0,
      "byteOffset" : 14488,
      "byteLength" : 2328
    },
    {
      "buffer" : 0,
      "byteOffset" : 16816,
      "byteLength" : 1164
    },
    {
      "buffer" : 0,
      "byteOffset" : 17980,
      "byteLength" : 2328
    },
    {
      "buffer" : 0,
      "byteOffset" : 20308,
      "byteLength" : 2112
    },
    {
      "buffer" : 0,
      "byteOffset" : 22420,
      "byteLength" : 2700
    },
    {
      "buffer" : 0,
      "byteOffset" : 25120,
      "byteLength" : 2700
    },
    {
      "buffer" : 0,
      "byteOffset" : 27820,
      "byteLength" : 3600
    },
    {
      "buffer" : 0,
      "byteOffset" : 31420,
      "byteLength" : 1800
    },
    {
      "buffer" : 0,
      "byteOffset" : 33220,
      "byteLength" : 900
    },
    {
      "buffer" : 0,
      "byteOffset" : 34120,
      "byteLength" : 1800
    }
  ],
  "accessors" : [
    {
      "bufferView" : 0,
      "componentType" : 5126,
      "count" : 1,
      "type" : "MAT4"
    },
    {
      "bufferView" : 1,
      "componentType" : 5123,
      "count" : 1392,
      "type" : "SCALAR"
    },
    {
      "bufferView" : 2,
      "min" : [ -0.0532448, 0.0512201, -0.266404 ],
      "max" : [ 0.0519548, 0.0951256, -0.105166 ],
      "componentType" : 5126,
      "count" : 291,
      "type" : "VEC3"
    },
    {
      "bufferView" : 3,
      "componentType" : 5126,
      "count" : 291,
      "type" : "VEC3"
    },
    {
      "bufferView" : 4,
      "componentType" : 5126,
      "count" : 291,
      "type" : "VEC4"
    },
    {
      "bufferView" : 5,
      "componentType" : 5123,
      "count" : 291,
      "type" : "VEC4"
    },
    {
      "bufferView" : 6,
      "normalized" : true,
      "componentType" : 5121,
      "count" : 291,
      "type" : "VEC4"
    },
    {
      "bufferView" : 7,
      "componentType" : 5126,
      "count" : 291,
      "type" : "VEC2"
    },
    {
      "bufferView" : 8,
      "componentType" : 5123,
      "count" : 1056,
      "type" : "SCALAR"
    },
    {
      "bufferView" : 9,
      "min" : [ -0.0440932, 0.0601992, -0.25949 ],
      "max" : [ 0.0451032, 0.0868025, -0.129678 ],
      "componentType" : 5126,
      "count" : 225,
      "type" : "VEC3"
    },
    {
      "bufferView" : 10,
      "componentType" : 5126,
      "count" : 225,
      "type" : "VEC3"
    },
    {
      "bufferView" : 11,
      "componentType" : 5126,
      "count" : 225,
      "type" : "VEC4"
    },
    {
      "bufferView" : 12,
      "componentType" : 5123,
      "count" : 225,
      "type" : "VEC4"
    },
    {
      "bufferView" : 13,
      "normalized" : true,
      "componentType" : 5121,
      "count" : 225,
      "type" : "VEC4"
    },
    {
      "bufferView" : 14,
      "componentType" : 5126,
      "count" : 225,
      "type" : "VEC2"
    }
  ]
}
