{
  "asset" : {
    "generator" : "UE Viewer (umodel) build 1590",
    "version" : "2.0"
  },
  "scene" : 0,
  "scenes" : [
    {
      "nodes" : [ 0 ]
    }
  ],
  "nodes" : [
    {
      "name" : "mag2",
      "mesh" : 0,
      "skin" : 0,
      "children" : [ 1 ]
    },
    {
      "name" : "b_body",
      "translation" : [ 0, 0, -0 ],
      "rotation" : [ -0, -0, 0, -1 ]
    }
  ],
  "skins" : [
    {
      "inverseBindMatrices" : 0,
      "skeleton" : 1,
      "joints" : [
        1
      ]
    }
  ],
  "materials" : [
    {
      "name" : "mat_alien_rifle_mag",
      "pbrMetallicRoughness" : {
        "baseColorFactor" : [ 0.3, 0.3, 0.3, 1.0 ],
        "metallicFactor" : 0.1,
        "roughnessFactor" : 0.5
      }
    },
    {
      "name" : "mat_alien_ammo_INST",
      "pbrMetallicRoughness" : {
        "baseColorFactor" : [ 0.9, 0.3, 0.3, 1.0 ],
        "metallicFactor" : 0.1,
        "roughnessFactor" : 0.5
      }
    }
  ],
  "meshes" : [
    {
      "primitives" : [
        {
          "attributes" : {
            "POSITION" : 2,
            "NORMAL" : 3,
            "TANGENT" : 4,
            "JOINTS_0" : 5,
            "WEIGHTS_0" : 6,
            "TEXCOORD_0" : 7
          },
          "indices" : 1,
          "material" : 0
        },
        {
          "attributes" : {
            "POSITION" : 9,
            "NORMAL" : 10,
            "TANGENT" : 11,
            "JOINTS_0" : 12,
            "WEIGHTS_0" : 13,
            "TEXCOORD_0" : 14
          },
          "indices" : 8,
          "material" : 1
        }
      ],
      "name" : "mag2"
    }
  ],
  "buffers" : [
    {
      "uri" : "mag2.bin",
      "byteLength" : 28720
    }
  ],
  "bufferViews" : [
    {
      "buffer" : 0,
      "byteOffset" : 0,
      "byteLength" : 64
    },
    {
      "buffer" : 0,
      "byteOffset" : 64,
      "byteLength" : 2028
    },
    {
      "buffer" : 0,
      "byteOffset" : 2092,
      "byteLength" : 3540
    },
    {
      "buffer" : 0,
      "byteOffset" : 5632,
      "byteLength" : 3540
    },
    {
      "buffer" : 0,
      "byteOffset" : 9172,
      "byteLength" : 4720
    },
    {
      "buffer" : 0,
      "byteOffset" : 13892,
      "byteLength" : 2360
    },
    {
      "buffer" : 0,
      "byteOffset" : 16252,
      "byteLength" : 1180
    },
    {
      "buffer" : 0,
      "byteOffset" : 17432,
      "byteLength" : 2360
    },
    {
      "buffer" : 0,
      "byteOffset" : 19792,
      "byteLength" : 768
    },
    {
      "buffer" : 0,
      "byteOffset" : 20560,
      "byteLength" : 1632
    },
    {
      "buffer" : 0,
      "byteOffset" : 22192,
      "byteLength" : 1632
    },
    {
      "buffer" : 0,
      "byteOffset" : 23824,
      "byteLength" : 2176
    },
    {
      "buffer" : 0,
      "byteOffset" : 26000,
      "byteLength" : 1088
    },
    {
      "buffer" : 0,
      "byteOffset" : 27088,
      "byteLength" : 544
    },
    {
      "buffer" : 0,
      "byteOffset" : 27632,
      "byteLength" : 1088
    }
  ],
  "accessors" : [
    {
      "bufferView" : 0,
      "componentType" : 5126,
      "count" : 1,
      "type" : "MAT4"
    },
    {
      "bufferView" : 1,
      "componentType" : 5123,
      "count" : 1014,
      "type" : "SCALAR"
    },
    {
      "bufferView" : 2,
      "min" : [ -0.0226178, 0.0513906, -0.282973 ],
      "max" : [ 0.0224584, 0.111603, -0.107324 ],
      "componentType" : 5126,
      "count" : 295,
      "type" : "VEC3"
    },
    {
      "bufferView" : 3,
      "componentType" : 5126,
      "count" : 295,
      "type" : "VEC3"
    },
    {
      "bufferView" : 4,
      "componentType" : 5126,
      "count" : 295,
      "type" : "VEC4"
    },
    {
      "bufferView" : 5,
      "componentType" : 5123,
      "count" : 295,
      "type" : "VEC4"
    },
    {
      "bufferView" : 6,
      "normalized" : true,
      "componentType" : 5121,
      "count" : 295,
      "type" : "VEC4"
    },
    {
      "bufferView" : 7,
      "componentType" : 5126,
      "count" : 295,
      "type" : "VEC2"
    },
    {
      "bufferView" : 8,
      "componentType" : 5123,
      "count" : 384,
      "type" : "SCALAR"
    },
    {
      "bufferView" : 9,
      "min" : [ -0.00849883, 0.0600446, -0.281469 ],
      "max" : [ 0.0090533, 0.104336, -0.156588 ],
      "componentType" : 5126,
      "count" : 136,
      "type" : "VEC3"
    },
    {
      "bufferView" : 10,
      "componentType" : 5126,
      "count" : 136,
      "type" : "VEC3"
    },
    {
      "bufferView" : 11,
      "componentType" : 5126,
      "count" : 136,
      "type" : "VEC4"
    },
    {
      "bufferView" : 12,
      "componentType" : 5123,
      "count" : 136,
      "type" : "VEC4"
    },
    {
      "bufferView" : 13,
      "normalized" : true,
      "componentType" : 5121,
      "count" : 136,
      "type" : "VEC4"
    },
    {
      "bufferView" : 14,
      "componentType" : 5126,
      "count" : 136,
      "type" : "VEC2"
    }
  ]
}
