{
  "asset" : {
    "generator" : "UE Viewer (umodel) build 1590",
    "version" : "2.0"
  },
  "scene" : 0,
  "scenes" : [
    {
      "nodes" : [ 0 ]
    }
  ],
  "nodes" : [
    {
      "name" : "mag5",
      "mesh" : 0,
      "skin" : 0,
      "children" : [ 1 ]
    },
    {
      "name" : "b_body",
      "translation" : [ 0, 0, -0 ],
      "rotation" : [ -0, -0, 0, -1 ]
    }
  ],
  "skins" : [
    {
      "inverseBindMatrices" : 0,
      "skeleton" : 1,
      "joints" : [
        1
      ]
    }
  ],
  "materials" : [
    {
      "name" : "mat_alien_rifle_mag",
      "pbrMetallicRoughness" : {
        "baseColorFactor" : [ 0.3, 0.3, 0.3, 1.0 ],
        "metallicFactor" : 0.1,
        "roughnessFactor" : 0.5
      }
    },
    {
      "name" : "mat_alien_ammo_INST",
      "pbrMetallicRoughness" : {
        "baseColorFactor" : [ 0.9, 0.3, 0.3, 1.0 ],
        "metallicFactor" : 0.1,
        "roughnessFactor" : 0.5
      }
    }
  ],
  "meshes" : [
    {
      "primitives" : [
        {
          "attributes" : {
            "POSITION" : 2,
            "NORMAL" : 3,
            "TANGENT" : 4,
            "JOINTS_0" : 5,
            "WEIGHTS_0" : 6,
            "TEXCOORD_0" : 7
          },
          "indices" : 1,
          "material" : 0
        },
        {
          "attributes" : {
            "POSITION" : 9,
            "NORMAL" : 10,
            "TANGENT" : 11,
            "JOINTS_0" : 12,
            "WEIGHTS_0" : 13,
            "TEXCOORD_0" : 14
          },
          "indices" : 8,
          "material" : 1
        }
      ],
      "name" : "mag5"
    }
  ],
  "buffers" : [
    {
      "uri" : "mag5.bin",
      "byteLength" : 27868
    }
  ],
  "bufferViews" : [
    {
      "buffer" : 0,
      "byteOffset" : 0,
      "byteLength" : 64
    },
    {
      "buffer" : 0,
      "byteOffset" : 64,
      "byteLength" : 2280
    },
    {
      "buffer" : 0,
      "byteOffset" : 2344,
      "byteLength" : 3096
    },
    {
      "buffer" : 0,
      "byteOffset" : 5440,
      "byteLength" : 3096
    },
    {
      "buffer" : 0,
      "byteOffset" : 8536,
      "byteLength" : 4128
    },
    {
      "buffer" : 0,
      "byteOffset" : 12664,
      "byteLength" : 2064
    },
    {
      "buffer" : 0,
      "byteOffset" : 14728,
      "byteLength" : 1032
    },
    {
      "buffer" : 0,
      "byteOffset" : 15760,
      "byteLength" : 2064
    },
    {
      "buffer" : 0,
      "byteOffset" : 17824,
      "byteLength" : 1344
    },
    {
      "buffer" : 0,
      "byteOffset" : 19168,
      "byteLength" : 1740
    },
    {
      "buffer" : 0,
      "byteOffset" : 20908,
      "byteLength" : 1740
    },
    {
      "buffer" : 0,
      "byteOffset" : 22648,
      "byteLength" : 2320
    },
    {
      "buffer" : 0,
      "byteOffset" : 24968,
      "byteLength" : 1160
    },
    {
      "buffer" : 0,
      "byteOffset" : 26128,
      "byteLength" : 580
    },
    {
      "buffer" : 0,
      "byteOffset" : 26708,
      "byteLength" : 1160
    }
  ],
  "accessors" : [
    {
      "bufferView" : 0,
      "componentType" : 5126,
      "count" : 1,
      "type" : "MAT4"
    },
    {
      "bufferView" : 1,
      "componentType" : 5123,
      "count" : 1140,
      "type" : "SCALAR"
    },
    {
      "bufferView" : 2,
      "min" : [ -0.0274891, 0.0425008, -0.235943 ],
      "max" : [ 0.0274891, 0.112177, -0.0892561 ],
      "componentType" : 5126,
      "count" : 258,
      "type" : "VEC3"
    },
    {
      "bufferView" : 3,
      "componentType" : 5126,
      "count" : 258,
      "type" : "VEC3"
    },
    {
      "bufferView" : 4,
      "componentType" : 5126,
      "count" : 258,
      "type" : "VEC4"
    },
    {
      "bufferView" : 5,
      "componentType" : 5123,
      "count" : 258,
      "type" : "VEC4"
    },
    {
      "bufferView" : 6,
      "normalized" : true,
      "componentType" : 5121,
      "count" : 258,
      "type" : "VEC4"
    },
    {
      "bufferView" : 7,
      "componentType" : 5126,
      "count" : 258,
      "type" : "VEC2"
    },
    {
      "bufferView" : 8,
      "componentType" : 5123,
      "count" : 672,
      "type" : "SCALAR"
    },
    {
      "bufferView" : 9,
      "min" : [ -0.003, 0.0307124, -0.219509 ],
      "max" : [ 0.003, 0.105323, -0.127296 ],
      "componentType" : 5126,
      "count" : 145,
      "type" : "VEC3"
    },
    {
      "bufferView" : 10,
      "componentType" : 5126,
      "count" : 145,
      "type" : "VEC3"
    },
    {
      "bufferView" : 11,
      "componentType" : 5126,
      "count" : 145,
      "type" : "VEC4"
    },
    {
      "bufferView" : 12,
      "componentType" : 5123,
      "count" : 145,
      "type" : "VEC4"
    },
    {
      "bufferView" : 13,
      "normalized" : true,
      "componentType" : 5121,
      "count" : 145,
      "type" : "VEC4"
    },
    {
      "bufferView" : 14,
      "componentType" : 5126,
      "count" : 145,
      "type" : "VEC2"
    }
  ]
}
