{
  "asset" : {
    "generator" : "UE Viewer (umodel) build 1590",
    "version" : "2.0"
  },
  "scene" : 0,
  "scenes" : [
    {
      "nodes" : [ 0 ]
    }
  ],
  "nodes" : [
    {
      "name" : "sight1",
      "mesh" : 0,
      "skin" : 0,
      "children" : [ 1 ]
    },
    {
      "name" : "b_body",
      "translation" : [ 0, 0, -0 ],
      "rotation" : [ -0, -0, 0, -1 ]
    }
  ],
  "skins" : [
    {
      "inverseBindMatrices" : 0,
      "skeleton" : 1,
      "joints" : [
        1
      ]
    }
  ],
  "materials" : [
    {
      "name" : "mat_alien_rifle_INST",
      "pbrMetallicRoughness" : {
        "baseColorFactor" : [ 0.3, 0.3, 0.3, 1.0 ],
        "metallicFactor" : 0.1,
        "roughnessFactor" : 0.5
      }
    }
  ],
  "meshes" : [
    {
      "primitives" : [
        {
          "attributes" : {
            "POSITION" : 2,
            "NORMAL" : 3,
            "TANGENT" : 4,
            "JOINTS_0" : 5,
            "WEIGHTS_0" : 6,
            "TEXCOORD_0" : 7
          },
          "indices" : 1,
          "material" : 0
        }
      ],
      "name" : "sight1"
    }
  ],
  "buffers" : [
    {
      "uri" : "sight1.bin",
      "byteLength" : 44740
    }
  ],
  "bufferViews" : [
    {
      "buffer" : 0,
      "byteOffset" : 0,
      "byteLength" : 64
    },
    {
      "buffer" : 0,
      "byteOffset" : 64,
      "byteLength" : 5316
    },
    {
      "buffer" : 0,
      "byteOffset" : 5380,
      "byteLength" : 7872
    },
    {
      "buffer" : 0,
      "byteOffset" : 13252,
      "byteLength" : 7872
    },
    {
      "buffer" : 0,
      "byteOffset" : 21124,
      "byteLength" : 10496
    },
    {
      "buffer" : 0,
      "byteOffset" : 31620,
      "byteLength" : 5248
    },
    {
      "buffer" : 0,
      "byteOffset" : 36868,
      "byteLength" : 2624
    },
    {
      "buffer" : 0,
      "byteOffset" : 39492,
      "byteLength" : 5248
    }
  ],
  "accessors" : [
    {
      "bufferView" : 0,
      "componentType" : 5126,
      "count" : 1,
      "type" : "MAT4"
    },
    {
      "bufferView" : 1,
      "componentType" : 5123,
      "count" : 2658,
      "type" : "SCALAR"
    },
    {
      "bufferView" : 2,
      "min" : [ -0.0218973, 0.0581839, -0.281544 ],
      "max" : [ 0.021896, 0.141433, 0.0524088 ],
      "componentType" : 5126,
      "count" : 656,
      "type" : "VEC3"
    },
    {
      "bufferView" : 3,
      "componentType" : 5126,
      "count" : 656,
      "type" : "VEC3"
    },
    {
      "bufferView" : 4,
      "componentType" : 5126,
      "count" : 656,
      "type" : "VEC4"
    },
    {
      "bufferView" : 5,
      "componentType" : 5123,
      "count" : 656,
      "type" : "VEC4"
    },
    {
      "bufferView" : 6,
      "normalized" : true,
      "componentType" : 5121,
      "count" : 656,
      "type" : "VEC4"
    },
    {
      "bufferView" : 7,
      "componentType" : 5126,
      "count" : 656,
      "type" : "VEC2"
    }
  ]
}
