{
  "asset" : {
    "generator" : "UE Viewer (umodel) build 1590",
    "version" : "2.0"
  },
  "scene" : 0,
  "scenes" : [
    {
      "nodes" : [ 0 ]
    }
  ],
  "nodes" : [
    {
      "name" : "stock5",
      "mesh" : 0,
      "skin" : 0,
      "children" : [ 1 ]
    },
    {
      "name" : "b_body",
      "translation" : [ 0, 0, -0 ],
      "rotation" : [ -0, -0, 0, -1 ]
    }
  ],
  "skins" : [
    {
      "inverseBindMatrices" : 0,
      "skeleton" : 1,
      "joints" : [
        1
      ]
    }
  ],
  "materials" : [
    {
      "name" : "mat_alien_rifle_INST",
      "pbrMetallicRoughness" : {
        "baseColorFactor" : [ 0.3, 0.3, 0.3, 1.0 ],
        "metallicFactor" : 0.1,
        "roughnessFactor" : 0.5
      }
    }
  ],
  "meshes" : [
    {
      "primitives" : [
        {
          "attributes" : {
            "POSITION" : 2,
            "NORMAL" : 3,
            "TANGENT" : 4,
            "JOINTS_0" : 5,
            "WEIGHTS_0" : 6,
            "TEXCOORD_0" : 7
          },
          "indices" : 1,
          "material" : 0
        }
      ],
      "name" : "stock5"
    }
  ],
  "buffers" : [
    {
      "uri" : "stock5.bin",
      "byteLength" : 21184
    }
  ],
  "bufferViews" : [
    {
      "buffer" : 0,
      "byteOffset" : 0,
      "byteLength" : 64
    },
    {
      "buffer" : 0,
      "byteOffset" : 64,
      "byteLength" : 2580
    },
    {
      "buffer" : 0,
      "byteOffset" : 2644,
      "byteLength" : 3708
    },
    {
      "buffer" : 0,
      "byteOffset" : 6352,
      "byteLength" : 3708
    },
    {
      "buffer" : 0,
      "byteOffset" : 10060,
      "byteLength" : 4944
    },
    {
      "buffer" : 0,
      "byteOffset" : 15004,
      "byteLength" : 2472
    },
    {
      "buffer" : 0,
      "byteOffset" : 17476,
      "byteLength" : 1236
    },
    {
      "buffer" : 0,
      "byteOffset" : 18712,
      "byteLength" : 2472
    }
  ],
  "accessors" : [
    {
      "bufferView" : 0,
      "componentType" : 5126,
      "count" : 1,
      "type" : "MAT4"
    },
    {
      "bufferView" : 1,
      "componentType" : 5123,
      "count" : 1290,
      "type" : "SCALAR"
    },
    {
      "bufferView" : 2,
      "min" : [ -0.017639, -0.0687654, 0.147913 ],
      "max" : [ 0.017639, 0.0377647, 0.465794 ],
      "componentType" : 5126,
      "count" : 309,
      "type" : "VEC3"
    },
    {
      "bufferView" : 3,
      "componentType" : 5126,
      "count" : 309,
      "type" : "VEC3"
    },
    {
      "bufferView" : 4,
      "componentType" : 5126,
      "count" : 309,
      "type" : "VEC4"
    },
    {
      "bufferView" : 5,
      "componentType" : 5123,
      "count" : 309,
      "type" : "VEC4"
    },
    {
      "bufferView" : 6,
      "normalized" : true,
      "componentType" : 5121,
      "count" : 309,
      "type" : "VEC4"
    },
    {
      "bufferView" : 7,
      "componentType" : 5126,
      "count" : 309,
      "type" : "VEC2"
    }
  ]
}
