<?xml version="1.0" encoding="UTF-8" standalone="no"?>
<svg xmlns:ffdec="https://www.free-decompiler.com/flash" xmlns:xlink="http://www.w3.org/1999/xlink" ffdec:objectType="shape" height="30.2px" width="30.2px" xmlns="http://www.w3.org/2000/svg">
  <g transform="matrix(1.0, 0.0, 0.0, 1.0, -2.9, -2.9)">
    <path d="M2.9 18.0 Q2.9 11.75 7.3 7.3 11.75 2.9 18.0 2.9 24.25 2.9 28.65 7.3 33.1 11.75 33.1 18.0 33.1 24.25 28.65 28.65 24.25 33.1 18.0 33.1 11.75 33.1 7.3 28.65 2.9 24.25 2.9 18.0" fill="url(#gradient0)" fill-rule="evenodd" stroke="none"/>
    <path d="M26.45 10.35 Q27.3 11.1 27.3 12.75 L27.3 14.7 Q27.3 15.9 26.6 16.6 25.85 17.3 24.5 17.45 25.9 17.65 26.65 18.45 27.45 19.3 27.45 20.6 L27.45 22.65 Q27.45 24.3 26.25 25.05 25.05 25.85 22.65 25.85 L9.7 25.85 9.7 9.6 23.65 9.6 Q25.6 9.6 26.45 10.35 M23.45 12.5 Q23.05 12.2 22.05 12.2 L13.45 12.2 13.45 16.1 22.05 16.1 23.45 15.85 Q23.8 15.6 23.8 14.95 L23.8 13.4 Q23.8 12.75 23.45 12.5 M22.05 18.8 L13.45 18.8 13.45 22.9 22.05 22.9 23.55 22.6 Q23.9 22.3 23.9 21.45 L23.9 20.25 Q23.9 19.4 23.55 19.1 23.15 18.8 22.05 18.8" fill="#ffffff" fill-rule="evenodd" stroke="none"/>
  </g>
  <defs>
    <linearGradient gradientTransform="matrix(0.0, -0.0177, 0.0184, 0.0, 18.0, 17.9)" gradientUnits="userSpaceOnUse" id="gradient0" spreadMethod="pad" x1="-819.2" x2="819.2">
      <stop offset="0.0" stop-color="#581f1f"/>
      <stop offset="1.0" stop-color="#aa3c3c"/>
    </linearGradient>
  </defs>
</svg>
